<svg width="1250" height="500" viewBox="0 0 1250 500" fill="none" xmlns="http://www.w3.org/2000/svg">
<path d="M613.961 242.596C646.877 234.883 663.4 217.238 663.4 189.712C663.4 150.913 636.087 131.565 581.41 131.565H481.333V368.435H593.268C646.799 368.435 673.486 347.462 673.486 305.464C673.486 271.489 653.679 250.542 613.935 242.622M539.581 154.705H577.996C598.845 154.705 614.43 167.243 614.43 192.292C614.43 219.379 599.418 232.974 579.716 232.974H539.607V154.705H539.581ZM578.204 345.243H539.581V255.985H582.061C608.67 255.985 622.04 271.876 622.04 303.632C622.04 331.416 604.083 345.243 578.204 345.243Z" fill="white"/>
<path d="M794.542 217.96C765.822 208.08 753 191.002 753 177.278C753 171.577 754.251 166.804 756.726 162.935L758.942 160.02C762.226 156.408 766.838 153.777 772.78 152.074C825.529 138.969 862.745 199.618 862.745 199.618V149.778C840.775 135.074 812.968 132.03 797.748 131.565H789.46C766.656 132.185 748.048 138.402 733.714 150.32C718.546 162.883 710.988 179.419 710.988 199.979C710.988 236.353 736.32 257.507 781.668 274.017C813.072 285.548 826.129 304.2 826.129 319.446C826.129 324.812 826.077 328.475 822.897 334.15C822.897 334.15 817.815 341.451 807.26 344.495C755.502 359.406 718.781 299.969 718.781 299.969V351.434C740.36 364.926 766.864 367.893 781.589 368.331H790.789C792.014 368.28 792.718 368.228 792.718 368.228L792.561 368.331H793.734V368.383H793.864C819.718 368.383 840.332 361.805 855.865 348.7C871.424 335.543 879.19 318.104 879.19 296.435C879.19 259.442 850.001 236.844 794.594 217.934" fill="white"/>
<path d="M1073.45 134.615H1069.3V302.555L956.742 134.615H912.906V371.459H936.153H940.297V215.567L1043.76 371.459H1096.69V134.615H1073.45Z" fill="white"/>
<path d="M368.669 279.641C370.284 289.341 378.598 296.822 388.84 297.028C400.386 297.312 409.976 288.206 410.237 276.777C410.524 265.272 401.376 255.753 389.831 255.495C379.354 255.237 370.545 262.666 368.773 272.573C357.931 272.289 309.926 273.011 278.235 309.591C278.156 308.585 278.104 307.553 278.026 306.547C281.831 285.471 297.442 239.81 361.423 232.045C364.42 239.088 371.197 244.273 379.458 244.789C391.003 245.46 400.881 236.689 401.584 225.209C402.262 213.755 393.453 203.901 381.934 203.23C370.415 202.559 360.485 211.304 359.808 222.784V223.042C349.67 223.868 302.342 229.62 275.915 263.131C275.811 260.603 275.707 258.1 275.628 255.65C288.164 205.887 327.726 187.829 339.401 183.547C342.398 189.97 348.679 194.743 356.341 195.491C367.861 196.6 378.103 188.216 379.197 176.762C380.318 165.385 371.9 155.221 360.355 154.086C348.836 152.977 338.645 161.335 337.499 172.763C337.421 173.641 337.395 174.492 337.421 175.395C312.219 181.999 291.917 197.606 279.381 209.499C279.929 203.049 284.307 163.554 308.909 142.916C312.193 147.663 317.457 150.991 323.634 151.661C335.101 153.003 345.526 144.799 346.829 133.397C348.158 121.969 339.896 111.676 328.403 110.386C316.962 109.045 306.564 117.222 305.234 128.65C304.974 130.843 305.078 132.984 305.495 135.048C296.582 140.981 282.378 152.719 273.074 171.499C268.93 139.975 276.697 118.589 281.649 108.683C284.072 110.025 286.861 110.954 289.806 111.237C301.273 112.501 311.62 104.195 312.818 92.7666C314.069 81.3384 305.704 71.1228 294.21 69.9361C282.691 68.6978 272.397 76.9787 271.198 88.381C270.625 93.8758 272.214 99.0353 275.316 103.085C271.068 109.122 267.94 116.01 265.621 123.181C263.301 116.036 260.174 109.122 255.926 103.085C259.027 99.0353 260.643 93.8758 260.096 88.381C258.871 76.9787 248.524 68.6978 237.057 69.9361C225.564 71.1486 217.224 81.3384 218.449 92.7666C219.648 104.195 229.994 112.501 241.488 111.237C244.459 110.979 247.169 110.051 249.619 108.683C254.492 118.383 261.998 139.047 258.454 169.539H258.167C258.167 169.539 258.167 170.364 258.115 171.938C258.037 172.686 257.932 173.486 257.802 174.26C248.55 153.828 233.382 141.239 224.104 135.048C224.495 132.984 224.6 130.843 224.339 128.65C223.036 117.222 212.637 109.045 201.144 110.386C189.651 111.676 181.415 121.969 182.718 133.397C184.048 144.799 194.42 153.003 205.913 151.661C212.142 150.991 217.407 147.663 220.69 142.916C245.214 163.554 249.645 203.049 250.192 209.499C237.656 197.606 217.381 181.999 192.153 175.395C192.179 174.492 192.153 173.641 192.101 172.763C190.954 161.335 180.712 152.977 169.219 154.086C157.699 155.221 149.281 165.36 150.402 176.762C151.497 188.216 161.765 196.6 173.258 195.491C180.92 194.743 187.175 189.97 190.224 183.547C202.213 187.932 243.572 206.867 254.988 259.648C254.883 261.273 254.831 262.899 254.753 264.524C228.587 229.827 180.112 223.868 169.844 223.042V222.784C169.14 211.279 159.237 202.533 147.692 203.23C136.146 203.901 127.337 213.755 128.015 225.209C128.667 236.715 138.622 245.46 150.167 244.789C158.351 244.273 165.179 239.088 168.176 232.045C236.536 240.378 249.697 291.946 252.173 310.546C220.43 273.011 171.694 272.289 160.853 272.573C159.054 262.666 150.246 255.211 139.769 255.495C128.197 255.779 119.076 265.272 119.337 276.777C119.597 288.231 129.214 297.338 140.759 297.028C150.975 296.822 159.315 289.341 160.931 279.641C179.096 281.215 193.664 285.497 205.21 291.224C187.722 293.313 175.265 303.039 169.062 309.075C165.596 306.934 161.426 305.696 157.022 305.902C145.45 306.418 136.485 316.118 137.006 327.598C137.528 339.052 147.301 347.978 158.846 347.487C170.417 346.946 179.357 337.272 178.861 325.766C178.653 321.561 177.193 317.692 174.874 314.493C198.877 295.558 220.404 303.452 227.805 307.166C236.77 315.989 242.217 325.379 245.527 333.041C232.653 325.508 219.674 333.041 213.054 338.278C210.187 336.807 206.982 335.982 203.516 335.982C191.944 335.982 182.588 345.269 182.588 356.774C182.588 368.28 191.944 377.593 203.516 377.593C215.087 377.593 224.443 368.254 224.443 356.774C224.443 352.311 223.01 348.158 220.586 344.753C240.263 333.454 247.612 351.899 249.358 357.703C246.882 389.434 243.937 414.844 240.419 423.176C240.419 423.176 250.401 430.838 265.412 430.219C280.45 430.838 290.431 423.176 290.431 423.176C286.835 414.586 283.786 387.989 281.258 355.02C284.098 347.771 291.917 334.873 309.092 344.753C306.694 348.158 305.234 352.311 305.234 356.774C305.234 368.28 314.617 377.593 326.188 377.593C337.759 377.593 347.116 368.254 347.116 356.774C347.116 345.295 337.759 335.982 326.188 335.982C322.722 335.982 319.49 336.833 316.623 338.278C310.03 333.041 297.051 325.508 284.177 333.041C287.46 325.405 292.907 315.989 301.872 307.192C309.248 303.477 330.827 295.532 354.804 314.519C352.484 317.717 351.025 321.587 350.816 325.792C350.321 337.323 359.286 346.971 370.832 347.513C382.377 347.978 392.176 339.078 392.697 327.624C393.166 316.144 384.201 306.444 372.656 305.928C368.225 305.722 364.082 306.96 360.589 309.101C354.387 303.065 341.877 293.339 324.416 291.25C335.987 285.523 350.53 281.24 368.695 279.667M389.544 267.826C394.235 267.955 397.936 271.799 397.858 276.468C397.753 281.137 393.844 284.8 389.127 284.697C384.488 284.594 380.761 280.724 380.865 276.081C380.97 271.412 384.853 267.748 389.544 267.826ZM381.204 215.561C385.895 215.845 389.466 219.817 389.179 224.487C388.892 229.156 384.879 232.664 380.188 232.406C375.523 232.148 371.952 228.124 372.213 223.506C372.526 218.837 376.487 215.303 381.204 215.561ZM359.208 166.366C363.847 166.856 367.287 170.958 366.818 175.575C366.349 180.219 362.231 183.65 357.566 183.16C352.875 182.695 349.487 178.568 349.904 173.924C350.373 169.281 354.517 165.927 359.208 166.34M317.64 130.043C318.187 125.374 322.383 122.098 327.022 122.588C331.713 123.13 335.049 127.283 334.502 131.927C333.98 136.544 329.758 139.898 325.093 139.33C320.428 138.789 317.092 134.635 317.614 130.018M283.551 89.6451C284.02 85.0016 288.242 81.648 292.855 82.1123C297.546 82.6283 300.934 86.7816 300.439 91.4251C299.944 96.0428 295.774 99.3964 291.109 98.9321C286.418 98.4419 283.056 94.237 283.551 89.6451ZM240.132 98.9321C235.467 99.3964 231.297 96.0428 230.776 91.4251C230.307 86.8074 233.669 82.6283 238.334 82.1123C242.999 81.6222 247.169 85.0016 247.69 89.6451C248.185 94.237 244.797 98.4419 240.132 98.9321ZM204.454 139.305C199.789 139.872 195.593 136.518 195.072 131.901C194.524 127.257 197.834 123.104 202.551 122.562C207.164 122.072 211.412 125.348 211.934 130.018C212.429 134.61 209.093 138.789 204.454 139.33M171.981 183.108C167.316 183.572 163.198 180.167 162.703 175.524C162.286 170.906 165.674 166.804 170.365 166.314C175.056 165.876 179.174 169.255 179.643 173.899C180.086 178.542 176.672 182.67 171.981 183.134M149.36 232.381C144.642 232.639 140.603 229.13 140.342 224.461C140.082 219.792 143.678 215.819 148.343 215.535C153.034 215.277 157.022 218.811 157.334 223.481C157.595 228.098 154.025 232.123 149.386 232.381M140.42 284.671C135.729 284.775 131.794 281.111 131.716 276.442C131.612 271.773 135.338 267.929 140.003 267.8C144.668 267.723 148.604 271.386 148.682 276.055C148.786 280.699 145.085 284.568 140.394 284.671M203.411 365.158C198.72 365.158 194.941 361.366 194.941 356.697C194.941 352.028 198.72 348.287 203.411 348.287C208.103 348.287 211.934 352.028 211.934 356.697C211.934 361.366 208.103 365.158 203.411 365.158ZM334.606 356.697C334.606 361.392 330.775 365.158 326.11 365.158C321.445 365.158 317.614 361.366 317.614 356.697C317.614 352.028 321.419 348.287 326.11 348.287C330.801 348.287 334.606 352.028 334.606 356.697ZM273.96 214.735L274.377 214.4L273.96 214.839V214.735ZM255.118 214.4L256.629 215.587V215.845L255.118 214.4ZM158.221 335.053C153.503 335.26 149.516 331.648 149.386 327.004C149.177 322.309 152.8 318.414 157.491 318.182C162.156 318.001 166.117 321.639 166.352 326.256C166.534 330.926 162.886 334.873 158.247 335.053M372.057 318.182C376.774 318.414 380.396 322.309 380.188 327.004C380.005 331.648 376.018 335.26 371.327 335.053C366.688 334.873 363.039 330.926 363.196 326.256C363.43 321.613 367.418 318.001 372.057 318.182Z" fill="white"/>
</svg>
