<svg width="30" height="30" viewBox="0 0 30 30" fill="none" xmlns="http://www.w3.org/2000/svg">
<path d="M17.0213 24.9051C17.2498 24.9998 17.5012 25.0245 17.7437 24.9762C17.9862 24.9279 18.209 24.8088 18.3838 24.6339L24.6338 18.3839L22.8663 16.6164L18.75 20.7326L18.75 5.00014L16.25 5.00014L16.25 23.7501C16.25 23.9974 16.3232 24.239 16.4605 24.4446C16.5978 24.6502 16.7929 24.8105 17.0213 24.9051ZM12.9788 5.09514C12.7503 5.00051 12.4989 4.97577 12.2564 5.02406C12.0139 5.07234 11.7911 5.19148 11.6163 5.36639L5.36629 11.6164L7.13379 13.3839L11.25 9.26764L11.25 25.0001L13.75 25.0001L13.75 6.25014C13.7503 6.0029 13.6771 5.76115 13.5398 5.55554C13.4025 5.34992 13.2072 5.18969 12.9788 5.09514Z" fill="#53C4CC"/>
</svg>
