<svg width="30" height="30" viewBox="0 0 30 30" fill="none" xmlns="http://www.w3.org/2000/svg">
<path d="M24.9051 12.9787C24.9998 12.7502 25.0245 12.4988 24.9762 12.2563C24.9279 12.0138 24.8088 11.791 24.6339 11.6162L18.3839 5.36621L16.6164 7.13371L20.7326 11.25H5.00014V13.75H23.7501C23.9974 13.75 24.239 13.6768 24.4446 13.5395C24.6502 13.4022 24.8105 13.2071 24.9051 12.9787ZM5.09515 17.0212C5.00051 17.2497 4.97578 17.5011 5.02406 17.7436C5.07234 17.9861 5.19148 18.2089 5.3664 18.3837L11.6164 24.6337L13.3839 22.8662L9.26764 18.75H25.0001V16.25H6.25014C6.0029 16.2497 5.76115 16.3229 5.55554 16.4602C5.34992 16.5975 5.18969 16.7928 5.09515 17.0212Z" fill="white"/>
</svg>
