<svg width="100" height="100" viewBox="0 0 100 100" fill="none" xmlns="http://www.w3.org/2000/svg">
<path fill-rule="evenodd" clip-rule="evenodd" d="M50.0002 91.6668C73.0127 91.6668 91.6668 73.0127 91.6668 50.0002C91.6668 26.9877 73.0127 8.3335 50.0002 8.3335C26.9877 8.3335 8.3335 26.9877 8.3335 50.0002C8.3335 73.0127 26.9877 91.6668 50.0002 91.6668ZM72.3793 36.8127C72.5743 36.6119 72.7267 36.3738 72.8276 36.1128C72.9286 35.8518 72.9758 35.5731 72.9667 35.2934C72.9575 35.0137 72.8921 34.7387 72.7743 34.4848C72.6566 34.231 72.4888 34.0034 72.2812 33.8158C72.0735 33.6282 71.8302 33.4843 71.5658 33.3928C71.3013 33.3013 71.0211 33.264 70.7419 33.2831C70.4627 33.3023 70.1902 33.3775 69.9407 33.5043C69.6912 33.631 69.4698 33.8068 69.2897 34.021L44.3335 61.5981L30.6043 48.4918C30.2048 48.11 29.6701 47.9026 29.1176 47.9151C28.5652 47.9276 28.0403 48.159 27.6585 48.5585C27.2767 48.958 27.0692 49.4928 27.0817 50.0452C27.0942 50.5977 27.3257 51.1225 27.7252 51.5043L43.0043 66.0877L44.5522 67.5668L45.9877 65.9793L72.3773 36.8127H72.3793Z" fill="white"/>
</svg>
