<svg width="64" height="64" viewBox="0 0 64 64" fill="none" xmlns="http://www.w3.org/2000/svg">
<circle cx="32" cy="32" r="32" fill="#0DB14B"/>
<path d="M28.5149 34.9466C28.8712 34.9836 29.2151 35.0983 29.5224 35.2825C29.9055 35.4934 30.3089 35.6654 30.7264 35.7957C31.1172 35.898 31.5201 35.947 31.924 35.9415C32.5073 35.9771 33.0874 35.831 33.5842 35.5232C33.7716 35.3921 33.9231 35.2161 34.0249 35.0113C34.1268 34.8065 34.1757 34.5795 34.1672 34.351C34.1796 34.1579 34.1523 33.9644 34.0869 33.7824C34.0215 33.6004 33.9194 33.4337 33.787 33.2928C33.4573 33.0394 33.061 32.8875 32.6464 32.8555L31.1319 32.6337C30.2238 32.5467 29.366 32.1765 28.6796 31.5755C28.3645 31.2468 28.1207 30.8564 27.9636 30.429C27.8066 30.0015 27.7397 29.5461 27.7672 29.0916C27.7316 28.1898 28.0319 27.3069 28.6099 26.6139C29.2511 25.9208 30.1138 25.4726 31.0496 25.3466V24.9284C31.022 24.6414 31.0566 24.3518 31.1509 24.0793C31.2411 23.9393 31.3649 23.8242 31.511 23.7445C31.6571 23.6648 31.8209 23.623 31.9874 23.623C32.1538 23.623 32.3176 23.6648 32.4638 23.7445C32.6099 23.8242 32.7337 23.9393 32.8238 24.0793C32.9267 24.3499 32.97 24.6395 32.9505 24.9284V25.2832C33.6658 25.3625 34.3634 25.5572 35.0163 25.8599C35.6943 26.1767 36.0301 26.5886 36.0301 27.0955C36.0355 27.3826 35.9364 27.6618 35.7513 27.8813C35.6625 27.99 35.5503 28.0773 35.423 28.1365C35.2957 28.1958 35.1567 28.2255 35.0163 28.2234C34.6899 28.2016 34.3732 28.104 34.0911 27.9383C33.4756 27.6078 32.7874 27.4357 32.0888 27.4377C31.5701 27.4033 31.0566 27.5587 30.644 27.8749C30.4839 28.0076 30.3553 28.1742 30.2677 28.3627C30.18 28.5512 30.1354 28.7569 30.1371 28.9648C30.1256 29.1442 30.1525 29.3241 30.2158 29.4923C30.2792 29.6605 30.3776 29.8134 30.5046 29.9407C30.8427 30.2107 31.2524 30.3759 31.6832 30.4159L33.1723 30.625C34.0624 30.7026 34.9083 31.0471 35.5993 31.6135C35.9408 31.9669 36.2041 32.3882 36.3723 32.85C36.5404 33.3117 36.6095 33.8037 36.5751 34.2939C36.5935 34.7617 36.5153 35.2282 36.3452 35.6644C36.1751 36.1005 35.9168 36.4968 35.5866 36.8286C34.8542 37.4917 33.9322 37.9084 32.9505 38.0199V38.7739C32.9707 39.0675 32.9252 39.3619 32.8175 39.6357C32.7274 39.7757 32.6036 39.8908 32.4574 39.9705C32.3113 40.0502 32.1475 40.092 31.981 40.092C31.8146 40.092 31.6508 40.0502 31.5046 39.9705C31.3585 39.8908 31.2347 39.7757 31.1446 39.6357C31.0534 39.3669 31.021 39.0817 31.0496 38.7993V38.1023C30.2477 38.038 29.4652 37.823 28.743 37.4686C28.3901 37.3137 28.0665 37.0994 27.7862 36.8349C27.5847 36.6085 27.476 36.3144 27.4819 36.0113C27.4878 35.7082 27.6078 35.4186 27.8179 35.2001C27.9109 35.113 28.0207 35.0456 28.1405 35.002C28.2602 34.9585 28.3876 34.9396 28.5149 34.9466Z" fill="white"/>
<path d="M43.8432 27.6531C43.8432 27.8724 43.7782 28.0868 43.6563 28.2692C43.5345 28.4515 43.3613 28.5937 43.1586 28.6776C42.956 28.7615 42.7331 28.7835 42.5179 28.7407C42.3028 28.6979 42.1052 28.5923 41.9502 28.4372C41.7951 28.2821 41.6895 28.0845 41.6467 27.8694C41.6039 27.6543 41.6258 27.4314 41.7098 27.2287C41.7937 27.0261 41.9358 26.8529 42.1182 26.7311C42.3006 26.6092 42.515 26.5442 42.7343 26.5442C43.0284 26.5442 43.3104 26.661 43.5184 26.869C43.7264 27.0769 43.8432 27.359 43.8432 27.6531Z" fill="white"/>
<path d="M31.8289 49.5397C30.7966 49.5401 29.7904 49.2161 28.9524 48.6134C28.1143 48.0108 27.4869 47.16 27.1588 46.1813C27.0716 45.9215 27.0474 45.6447 27.0881 45.3736C27.1289 45.1026 27.2335 44.8452 27.3932 44.6225C27.5571 44.3958 27.7722 44.211 28.0211 44.0832C28.27 43.9555 28.5455 43.8884 28.8253 43.8875H34.8514C35.1305 43.8873 35.4055 43.954 35.6535 44.0819C35.9016 44.2098 36.1154 44.3951 36.2772 44.6225C36.4369 44.8452 36.5415 45.1026 36.5823 45.3736C36.623 45.6447 36.5988 45.9215 36.5116 46.1813C36.1837 47.1626 35.5545 48.0154 34.7138 48.6184C33.873 49.2213 32.8635 49.5438 31.8289 49.5397V49.5397ZM29.0407 45.7884C29.2731 46.3357 29.6613 46.8025 30.1571 47.1307C30.6529 47.4589 31.2343 47.6338 31.8289 47.6338C32.4234 47.6338 33.0048 47.4589 33.5006 47.1307C33.9964 46.8025 34.3847 46.3357 34.617 45.7884H29.0407Z" fill="white"/>
<path d="M45.364 45.6238H18.636C18.1172 45.6384 17.6046 45.5072 17.1565 45.2451C16.7085 44.983 16.3429 44.6005 16.1014 44.141C15.8894 43.7352 15.7966 43.2777 15.8336 42.8213C15.8706 42.365 16.0359 41.9284 16.3105 41.562C16.3441 41.5122 16.3846 41.4674 16.4309 41.4289L19.84 38.2606V29.0852C19.8343 26.5303 20.6515 24.0415 22.1705 21.9872C23.6895 19.933 25.8297 18.4224 28.2741 17.6792V17.2547C28.3125 16.3503 28.6988 15.4957 29.3524 14.8693C30.0059 14.243 30.8762 13.8933 31.7814 13.8933C32.6866 13.8933 33.5568 14.243 34.2104 14.8693C34.8639 15.4957 35.2503 16.3503 35.2887 17.2547V17.7426C36.9276 18.2518 38.4386 19.1056 39.7206 20.2465C41.0025 21.3875 42.0257 22.7893 42.7216 24.3581C42.8224 24.5891 42.8273 24.8508 42.7352 25.0855C42.6431 25.3202 42.4616 25.5087 42.2305 25.6095C41.9994 25.7104 41.7377 25.7153 41.503 25.6232C41.2683 25.5311 41.0798 25.3495 40.979 25.1185C40.3555 23.6977 39.4143 22.4391 38.2279 21.4394C37.0414 20.4396 35.6413 19.7256 34.1354 19.3521C33.9283 19.3021 33.7442 19.1834 33.613 19.0154C33.4819 18.8475 33.4114 18.6401 33.4131 18.427V17.2674C33.3874 16.8588 33.207 16.4753 32.9086 16.1951C32.6101 15.9148 32.2161 15.7588 31.8067 15.7588C31.3973 15.7588 31.0033 15.9148 30.7049 16.1951C30.4065 16.4753 30.2261 16.8588 30.2004 17.2674V18.4206C30.2006 18.6343 30.1288 18.8418 29.9966 19.0097C29.8644 19.1775 29.6795 19.2959 29.4717 19.3458C27.2893 19.8852 25.3481 21.1346 23.9533 22.8977C22.5585 24.6607 21.7892 26.8373 21.7663 29.0852V38.6915C21.767 38.8484 21.7285 39.003 21.6543 39.1413C21.5802 39.2796 21.4728 39.3973 21.3418 39.4836L17.8313 42.766C17.7846 42.8481 17.7601 42.9409 17.7601 43.0353C17.7601 43.1297 17.7846 43.2225 17.8313 43.3046C17.9126 43.4474 18.0322 43.5647 18.1767 43.6431C18.3211 43.7214 18.4846 43.7578 18.6487 43.7482H45.364C45.5311 43.758 45.6977 43.7197 45.8437 43.6377C45.9897 43.5557 46.1091 43.4335 46.1877 43.2856C46.233 43.1988 46.2528 43.1011 46.245 43.0035C46.2371 42.906 46.2019 42.8127 46.1434 42.7343L42.1513 39.4646C42.0459 39.3737 41.9618 39.2607 41.9048 39.1337C41.8479 39.0067 41.8195 38.8687 41.8218 38.7295V32.0444C41.8218 31.7923 41.9219 31.5505 42.1002 31.3723C42.2784 31.194 42.5202 31.0939 42.7723 31.0939C43.0244 31.0939 43.2661 31.194 43.4444 31.3723C43.6226 31.5505 43.7228 31.7923 43.7228 32.0444V38.2796L47.455 41.3339C47.5058 41.3714 47.5506 41.4162 47.5881 41.467C47.8931 41.8255 48.0872 42.265 48.1468 42.7319C48.2065 43.1988 48.129 43.673 47.924 44.0967C47.6886 44.5699 47.3221 44.9654 46.8682 45.2361C46.4143 45.5069 45.8922 45.6415 45.364 45.6238Z" fill="white"/>
</svg>
