<svg width="25" height="20" viewBox="0 0 25 20" fill="none" xmlns="http://www.w3.org/2000/svg">
<path d="M8.75 10C11.5117 10 13.75 7.76172 13.75 5C13.75 2.23828 11.5117 0 8.75 0C5.98828 0 3.75 2.23828 3.75 5C3.75 7.76172 5.98828 10 8.75 10ZM8.75 1.25C10.8164 1.25 12.5 2.93359 12.5 5C12.5 7.06641 10.8164 8.75 8.75 8.75C6.68359 8.75 5 7.06641 5 5C5 2.93359 6.68359 1.25 8.75 1.25ZM24.6328 9.22266L23.2773 7.86719C23.0312 7.62109 22.7109 7.5 22.3867 7.5C22.0664 7.5 21.7422 7.62109 21.4961 7.86719L12.8047 16.5625L12.5078 19.2266C12.4609 19.6445 12.7891 20 13.1992 20C13.2266 20 13.25 20 13.2773 19.9961L15.9414 19.6992L24.6328 11.0078C25.1211 10.5117 25.1211 9.71484 24.6328 9.22266ZM15.3633 18.5039L13.8242 18.6797L13.9961 17.1367L20.125 11.0078L21.4922 12.375L15.3633 18.5039ZM22.375 11.4922L21.0078 10.125L22.3828 8.75H22.3867L22.3945 8.75391L23.75 10.1211L22.375 11.4922ZM5.25 12.5C6.01562 12.5 6.77734 13.125 8.75 13.125C10.7188 13.125 11.4844 12.5 12.25 12.5C13.0586 12.5 13.8086 12.7461 14.4375 13.1602L15.3281 12.2695C14.4609 11.6367 13.4023 11.2539 12.25 11.2539C11.1289 11.2539 10.5898 11.8789 8.75 11.8789C6.91016 11.8789 6.375 11.2539 5.25 11.2539C2.35156 11.25 0 13.6016 0 16.5V18.125C0 19.1602 0.839844 20 1.875 20H11.3867C11.2773 19.7109 11.2266 19.3984 11.2617 19.0859L11.3008 18.75H1.875C1.53125 18.75 1.25 18.4688 1.25 18.125V16.5C1.25 14.293 3.04297 12.5 5.25 12.5Z" fill="#111111"/>
</svg>
