<svg width="18" height="18" viewBox="0 0 18 18" fill="none" xmlns="http://www.w3.org/2000/svg">
<path d="M9 0.28125C4.18359 0.28125 0.28125 4.18359 0.28125 9C0.28125 13.8164 4.18359 17.7188 9 17.7188C13.8164 17.7188 17.7188 13.8164 17.7188 9C17.7188 4.18359 13.8164 0.28125 9 0.28125ZM13.275 11.2887C13.4402 11.4539 13.4402 11.7211 13.275 11.8863L11.8828 13.275C11.7176 13.4402 11.4504 13.4402 11.2852 13.275L9 10.9688L6.71133 13.275C6.54609 13.4402 6.27891 13.4402 6.11367 13.275L4.725 11.8828C4.55977 11.7176 4.55977 11.4504 4.725 11.2852L7.03125 9L4.725 6.71133C4.55977 6.54609 4.55977 6.27891 4.725 6.11367L6.11719 4.72148C6.28242 4.55625 6.54961 4.55625 6.71484 4.72148L9 7.03125L11.2887 4.725C11.4539 4.55977 11.7211 4.55977 11.8863 4.725L13.2785 6.11719C13.4438 6.28242 13.4438 6.54961 13.2785 6.71484L10.9688 9L13.275 11.2887Z" fill="#FF0000"/>
</svg>
