<svg width="64" height="64" viewBox="0 0 64 64" fill="none" xmlns="http://www.w3.org/2000/svg">
<circle cx="32" cy="32" r="32" fill="#0DB14B"/>
<path d="M44.3564 50.5791H21.4685C20.1424 50.574 18.8724 50.0438 17.9366 49.1043C17.0007 48.1649 16.4752 46.8929 16.4752 45.5668V29.1486C16.4752 28.8965 16.5754 28.6547 16.7536 28.4765C16.9319 28.2982 17.1736 28.1981 17.4257 28.1981C17.6778 28.1981 17.9196 28.2982 18.0978 28.4765C18.2761 28.6547 18.3762 28.8965 18.3762 29.1486V45.5668C18.3762 46.3909 18.7031 47.1813 19.2852 47.7646C19.8674 48.3479 20.6571 48.6764 21.4812 48.6781H44.3564C45.1805 48.6764 45.9702 48.3479 46.5523 47.7646C47.1344 47.1813 47.4614 46.3909 47.4614 45.5668V21.608C47.4614 20.7845 47.1342 19.9948 46.5519 19.4125C45.9696 18.8302 45.1799 18.503 44.3564 18.503H30.137C29.8849 18.503 29.6432 18.4029 29.4649 18.2246C29.2866 18.0464 29.1865 17.8046 29.1865 17.5525C29.1865 17.3005 29.2866 17.0587 29.4649 16.8804C29.6432 16.7022 29.8849 16.6021 30.137 16.6021H44.3564C45.6836 16.6037 46.9559 17.1317 47.8943 18.0701C48.8327 19.0085 49.3607 20.2808 49.3624 21.608V45.5668C49.3607 46.8945 48.8329 48.1675 47.8947 49.1069C46.9564 50.0464 45.6841 50.5757 44.3564 50.5791Z" fill="white"/>
<path d="M20.2772 26.7533C18.7674 26.7532 17.2945 26.2869 16.0596 25.4182C14.8248 24.5496 13.8882 23.3209 13.3779 21.8999C12.8676 20.479 12.8084 18.9352 13.2084 17.4794C13.6084 16.0235 14.4482 14.7267 15.6129 13.766C16.7776 12.8053 18.2105 12.2277 19.7158 12.1119C21.2211 11.9962 22.7255 12.348 24.0234 13.1193C25.3213 13.8906 26.3494 15.0438 26.9673 16.4214C27.5852 17.7989 27.7627 19.3336 27.4756 20.8159C27.4585 20.9443 27.4154 21.0679 27.3488 21.179C27.2822 21.2902 27.1936 21.3865 27.0884 21.4621C26.9832 21.5378 26.8637 21.5911 26.7371 21.6189C26.6106 21.6467 26.4797 21.6483 26.3525 21.6236C26.2253 21.599 26.1045 21.5486 25.9975 21.4755C25.8905 21.4025 25.7996 21.3083 25.7303 21.1988C25.661 21.0894 25.6148 20.9669 25.5946 20.8389C25.5744 20.711 25.5805 20.5802 25.6127 20.4547C25.8425 19.2689 25.6704 18.0403 25.1237 16.9633C24.5769 15.8862 23.6867 15.0222 22.5938 14.5079C21.501 13.9935 20.2678 13.8582 19.0894 14.1233C17.911 14.3885 16.8546 15.0389 16.0873 15.9717C15.32 16.9046 14.8856 18.0666 14.8529 19.2741C14.8201 20.4815 15.1908 21.6654 15.9064 22.6385C16.6219 23.6116 17.6415 24.3184 18.8038 24.647C19.9661 24.9757 21.2048 24.9074 22.3239 24.4531C22.4408 24.4006 22.5672 24.3724 22.6953 24.3702C22.8234 24.3681 22.9507 24.3921 23.0692 24.4407C23.1878 24.4893 23.2952 24.5615 23.385 24.653C23.4747 24.7445 23.5449 24.8532 23.5913 24.9727C23.642 25.0898 23.6687 25.2159 23.67 25.3436C23.6712 25.4712 23.6469 25.5978 23.5985 25.7159C23.5501 25.834 23.4785 25.9412 23.3881 26.0312C23.2976 26.1212 23.19 26.1922 23.0717 26.24C22.182 26.5897 21.2331 26.764 20.2772 26.7533Z" fill="white"/>
<path d="M26.6138 23.0908C26.6138 23.2637 26.5626 23.4328 26.4665 23.5766C26.3704 23.7204 26.2338 23.8325 26.074 23.8987C25.9142 23.9648 25.7384 23.9822 25.5688 23.9484C25.3992 23.9147 25.2433 23.8314 25.1211 23.7091C24.9988 23.5868 24.9155 23.431 24.8817 23.2614C24.848 23.0917 24.8653 22.9159 24.9315 22.7561C24.9977 22.5963 25.1098 22.4598 25.2536 22.3637C25.3974 22.2676 25.5664 22.2163 25.7394 22.2163C25.9713 22.2163 26.1937 22.3084 26.3577 22.4724C26.5217 22.6364 26.6138 22.8588 26.6138 23.0908V23.0908Z" fill="white"/>
<path d="M22.7738 21.2594H19.9604C19.7923 21.2594 19.6312 21.1926 19.5123 21.0738C19.3935 20.955 19.3267 20.7938 19.3267 20.6257V17.8883C19.3267 17.7202 19.3935 17.5591 19.5123 17.4402C19.6312 17.3214 19.7923 17.2546 19.9604 17.2546C20.1284 17.2546 20.2896 17.3214 20.4085 17.4402C20.5273 17.5591 20.594 17.7202 20.594 17.8883V19.9921H22.7738C22.8571 19.9921 22.9395 20.0085 23.0163 20.0403C23.0932 20.0721 23.1631 20.1188 23.2219 20.1777C23.2808 20.2365 23.3274 20.3064 23.3593 20.3832C23.3911 20.4601 23.4075 20.5425 23.4075 20.6257C23.4075 20.7089 23.3911 20.7913 23.3593 20.8682C23.3274 20.9451 23.2808 21.015 23.2219 21.0738C23.1631 21.1326 23.0932 21.1793 23.0163 21.2112C22.9395 21.243 22.8571 21.2594 22.7738 21.2594V21.2594Z" fill="white"/>
<path d="M42.392 29.3448H24.9283C24.6762 29.3448 24.4344 29.2447 24.2562 29.0664C24.0779 28.8882 23.9778 28.6464 23.9778 28.3943C23.9778 28.1423 24.0779 27.9005 24.2562 27.7222C24.4344 27.544 24.6762 27.4438 24.9283 27.4438H42.392C42.6441 27.4438 42.8859 27.544 43.0641 27.7222C43.2424 27.9005 43.3425 28.1423 43.3425 28.3943C43.3425 28.6464 43.2424 28.8882 43.0641 29.0664C42.8859 29.2447 42.6441 29.3448 42.392 29.3448Z" fill="white"/>
<path d="M42.392 33.7616H24.9283C24.6762 33.7616 24.4344 33.6614 24.2562 33.4832C24.0779 33.3049 23.9778 33.0632 23.9778 32.8111C23.9778 32.559 24.0779 32.3172 24.2562 32.139C24.4344 31.9607 24.6762 31.8606 24.9283 31.8606H42.392C42.6441 31.8606 42.8859 31.9607 43.0641 32.139C43.2424 32.3172 43.3425 32.559 43.3425 32.8111C43.3425 33.0632 43.2424 33.3049 43.0641 33.4832C42.8859 33.6614 42.6441 33.7616 42.392 33.7616V33.7616Z" fill="white"/>
<path d="M42.392 38.1783H24.9283C24.6762 38.1783 24.4344 38.0782 24.2562 37.8999C24.0779 37.7217 23.9778 37.4799 23.9778 37.2278C23.9778 36.9758 24.0779 36.734 24.2562 36.5557C24.4344 36.3775 24.6762 36.2773 24.9283 36.2773H42.392C42.6441 36.2773 42.8859 36.3775 43.0641 36.5557C43.2424 36.734 43.3425 36.9758 43.3425 37.2278C43.3425 37.4799 43.2424 37.7217 43.0641 37.8999C42.8859 38.0782 42.6441 38.1783 42.392 38.1783Z" fill="white"/>
<path d="M33.6855 42.6012H24.9283C24.6762 42.6012 24.4344 42.501 24.2562 42.3228C24.0779 42.1445 23.9778 41.9028 23.9778 41.6507C23.9778 41.3986 24.0779 41.1568 24.2562 40.9786C24.4344 40.8003 24.6762 40.7002 24.9283 40.7002H33.6855C33.9376 40.7002 34.1794 40.8003 34.3576 40.9786C34.5359 41.1568 34.636 41.3986 34.636 41.6507C34.636 41.9028 34.5359 42.1445 34.3576 42.3228C34.1794 42.501 33.9376 42.6012 33.6855 42.6012Z" fill="white"/>
</svg>
