<svg width="64" height="64" viewBox="0 0 64 64" fill="none" xmlns="http://www.w3.org/2000/svg">
<circle cx="32" cy="32" r="32" fill="#0DB14B"/>
<path d="M19.0543 29.2183C18.0131 29.2166 16.9807 29.0277 16.0063 28.6607C15.8765 28.6298 15.7547 28.5718 15.6488 28.4906C15.5429 28.4095 15.4553 28.3069 15.3916 28.1896C15.3279 28.0724 15.2897 27.943 15.2793 27.81C15.269 27.6769 15.2867 27.5432 15.3315 27.4175C15.3762 27.2918 15.4469 27.1769 15.539 27.0803C15.6311 26.9838 15.7424 26.9076 15.8659 26.8569C15.9893 26.8063 16.122 26.7821 16.2554 26.7861C16.3888 26.7901 16.5198 26.8221 16.64 26.8801C19.5865 27.9764 22.6978 27.0069 24.96 24.2948C25.1213 24.1007 25.3532 23.9786 25.6045 23.9554C25.8558 23.9323 26.1061 24.0099 26.3002 24.1712C26.4943 24.3326 26.6164 24.5644 26.6395 24.8157C26.6627 25.0671 26.5851 25.3173 26.4238 25.5114C25.5442 26.6339 24.4275 27.5482 23.1535 28.189C21.8796 28.8298 20.4798 29.1813 19.0543 29.2183V29.2183Z" fill="white"/>
<path d="M26.5062 29.5286H26.3921C26.2681 29.5137 26.1482 29.4745 26.0394 29.4133C25.9305 29.352 25.8348 29.2699 25.7577 29.1716C25.6806 29.0733 25.6237 28.9608 25.5901 28.8405C25.5565 28.7202 25.547 28.5944 25.562 28.4704L26.0119 24.7318L22.945 23.889C22.819 23.8615 22.7 23.8086 22.5951 23.7336C22.4903 23.6585 22.4017 23.563 22.335 23.4527C22.2682 23.3424 22.2246 23.2196 22.2068 23.0919C22.1889 22.9642 22.1973 22.8342 22.2313 22.7099C22.2653 22.5855 22.3242 22.4693 22.4045 22.3685C22.4848 22.2676 22.5848 22.1841 22.6984 22.1231C22.812 22.0621 22.9368 22.0249 23.0653 22.0136C23.1937 22.0024 23.3231 22.0174 23.4456 22.0577L27.3046 23.1096C27.524 23.169 27.7146 23.3054 27.8415 23.494C27.9684 23.6826 28.023 23.9106 27.9953 24.1362L27.4503 28.6922C27.4224 28.9229 27.311 29.1355 27.137 29.2896C26.963 29.4437 26.7386 29.5288 26.5062 29.5286V29.5286Z" fill="white"/>
<path d="M16.3676 19.4027C16.1484 19.4005 15.9363 19.3246 15.7656 19.1873C15.5707 19.0275 15.4472 18.797 15.4223 18.5463C15.3973 18.2956 15.4729 18.0452 15.6325 17.8502C16.8434 16.3415 18.4805 15.2323 20.3307 14.6672C22.1809 14.1021 24.1583 14.1072 26.0056 14.6819C26.1449 14.6949 26.2797 14.7384 26.4003 14.8095C26.5209 14.8806 26.6243 14.9775 26.7031 15.0932C26.7819 15.2089 26.8342 15.3405 26.8562 15.4788C26.8782 15.617 26.8695 15.7584 26.8305 15.8928C26.7915 16.0273 26.7234 16.1515 26.6309 16.2565C26.5383 16.3616 26.4238 16.4449 26.2953 16.5005C26.1669 16.5562 26.0277 16.5827 25.8878 16.5783C25.7479 16.574 25.6107 16.5387 25.486 16.4752C23.9967 15.9939 22.3961 15.9787 20.898 16.4317C19.3999 16.8846 18.0757 17.7841 17.1026 19.0098C17.0176 19.1265 16.9074 19.2225 16.7801 19.2905C16.6528 19.3585 16.5118 19.3969 16.3676 19.4027V19.4027Z" fill="white"/>
<path d="M18.9212 21.1138C18.8371 21.1262 18.7517 21.1262 18.6677 21.1138L14.8087 20.0619C14.5851 20.0009 14.3915 19.8603 14.2643 19.6666C14.1371 19.4729 14.0851 19.2394 14.118 19.01L14.6629 14.454C14.6924 14.2019 14.8207 13.9718 15.0197 13.8143C15.2188 13.6569 15.4722 13.585 15.7243 13.6144C15.9764 13.6438 16.2065 13.7721 16.364 13.9712C16.5214 14.1702 16.5933 14.4237 16.5639 14.6757L16.114 18.4207L19.181 19.2571C19.3992 19.3206 19.5874 19.4602 19.7116 19.6506C19.8357 19.8409 19.8876 20.0695 19.8577 20.2948C19.8278 20.5201 19.7182 20.7272 19.5487 20.8786C19.3792 21.03 19.1611 21.1157 18.9338 21.1201L18.9212 21.1138Z" fill="white"/>
<path d="M23.8828 52.0997C23.4792 52.1056 23.0766 52.0587 22.6851 51.9603L22.5774 51.9223L22.4443 51.8779L22.362 51.8399L10.4491 45.6237C9.86266 45.3167 9.41437 44.7988 9.19449 44.1745C8.97462 43.5501 8.99951 42.8657 9.26414 42.2589L12.0776 35.8209C12.1607 35.6297 12.2694 35.4506 12.4008 35.2886C12.63 34.9943 12.9407 34.774 13.2942 34.655C13.376 34.6242 13.4611 34.6029 13.5477 34.5916H13.6237C14.8911 34.3381 23.3822 32.5005 30.2194 31.0177L38.7485 29.1484C39.7263 28.9448 40.7396 28.9906 41.695 29.2815L52.0618 32.4498C52.4078 32.5424 52.7278 32.7135 52.9971 32.9497C53.2663 33.186 53.4775 33.4811 53.6142 33.8122C53.6142 33.8692 53.6649 33.9199 53.6839 33.9769L56.1045 41.3211C56.2058 41.6292 56.2428 41.9548 56.2132 42.2777C56.1836 42.6007 56.088 42.9141 55.9324 43.1986C55.7768 43.4831 55.5644 43.7327 55.3085 43.9318C55.0525 44.131 54.7584 44.2755 54.4443 44.3564L33.4321 49.7932L28.8887 50.9971C26.5125 51.6308 25.4479 51.9096 25.2451 51.954C24.7971 52.0483 24.3406 52.0971 23.8828 52.0997V52.0997ZM23.1794 50.1163C23.7336 50.2476 24.3108 50.2476 24.8649 50.1163L28.4008 49.1849C30.042 48.7476 31.8606 48.2597 32.9568 47.9809L53.9691 42.5568C54.0318 42.5413 54.0904 42.5122 54.1408 42.4718C54.1911 42.4313 54.232 42.3802 54.2606 42.3223C54.292 42.2658 54.3116 42.2036 54.3181 42.1393C54.3246 42.075 54.318 42.0101 54.2986 41.9484L51.8717 34.5789L51.8083 34.4269C51.7142 34.3627 51.6119 34.3116 51.5041 34.2748L41.1311 31.1065C40.4859 30.9169 39.8027 30.8973 39.1477 31.0494L30.6186 32.8617C23.3758 34.4332 15.1699 36.2138 13.9786 36.4482H13.9152C13.8824 36.4807 13.8566 36.5195 13.8392 36.5623L11.0067 43.013C10.9348 43.1787 10.9281 43.3654 10.988 43.5358C11.0479 43.7062 11.1701 43.8476 11.3299 43.9318L23.1794 50.1163Z" fill="white"/>
<path d="M24.5038 41.2389C23.6192 41.2403 22.7416 41.0836 21.9121 40.7763L12.7557 36.7526C12.5246 36.6517 12.343 36.4632 12.2509 36.2285C12.1588 35.9938 12.1637 35.7322 12.2646 35.5011C12.3654 35.27 12.5539 35.0885 12.7886 34.9964C13.0233 34.9043 13.285 34.9092 13.5161 35.01L22.6218 39.0148C23.6387 39.3781 24.739 39.4397 25.7901 39.1922L38.907 36.2203C39.0317 36.1835 39.1626 36.1726 39.2916 36.1884C39.4207 36.2041 39.5452 36.2462 39.6573 36.312C39.7695 36.3778 39.8669 36.4659 39.9436 36.5709C40.0204 36.6759 40.0748 36.7955 40.1034 36.9223C40.1321 37.0491 40.1344 37.1805 40.1103 37.3082C40.0862 37.436 40.0361 37.5574 39.9631 37.6651C39.8902 37.7727 39.7959 37.8642 39.6862 37.934C39.5765 38.0037 39.4536 38.0502 39.3252 38.0706L26.202 41.0425C25.6456 41.1741 25.0756 41.2401 24.5038 41.2389Z" fill="white"/>
<path d="M23.6673 52.0998C23.4158 52.0931 23.1769 51.9877 23.0026 51.8062C22.8283 51.6247 22.7324 51.3819 22.7358 51.1303L22.9449 40.2376C22.9482 39.9865 23.0494 39.7467 23.227 39.5691C23.4045 39.3916 23.6444 39.2904 23.8954 39.2871C24.02 39.2888 24.143 39.315 24.2573 39.3644C24.3716 39.4138 24.4751 39.4853 24.5617 39.5748C24.6482 39.6643 24.7162 39.7701 24.7618 39.886C24.8073 40.002 24.8294 40.1258 24.8269 40.2503L24.6178 51.1493C24.6187 51.2743 24.5946 51.3983 24.5472 51.514C24.4997 51.6297 24.4297 51.7348 24.3413 51.8233C24.2529 51.9117 24.1478 51.9817 24.0321 52.0291C23.9164 52.0766 23.7924 52.1006 23.6673 52.0998Z" fill="white"/>
<path d="M42.823 36.3534C42.8229 36.5453 42.7662 36.7329 42.6601 36.8928C42.5539 37.0527 42.403 37.1777 42.2262 37.2522C42.0493 37.3268 41.8544 37.3475 41.6659 37.3119C41.4773 37.2763 41.3034 37.1858 41.166 37.0518C41.0286 36.9179 40.9337 36.7464 40.8932 36.5588C40.8528 36.3712 40.8685 36.1758 40.9385 35.9972C41.0085 35.8185 41.1296 35.6644 41.2867 35.5542C41.4438 35.444 41.6299 35.3825 41.8218 35.3775C41.952 35.3741 42.0817 35.3969 42.203 35.4444C42.3243 35.4919 42.4349 35.5633 42.5282 35.6542C42.6216 35.7452 42.6957 35.8539 42.7463 35.974C42.7969 36.0941 42.823 36.2231 42.823 36.3534V36.3534Z" fill="white"/>
<path d="M45.8393 36.5813C45.5872 36.6082 45.3347 36.5338 45.1375 36.3746C44.9402 36.2154 44.8143 35.9843 44.7874 35.7322C44.7605 35.4801 44.8348 35.2277 44.9941 35.0304C45.1533 34.8331 45.3844 34.7072 45.6365 34.6803L52.4991 33.1532C52.7453 33.0986 53.0031 33.144 53.2158 33.2795C53.4285 33.4149 53.5787 33.6294 53.6333 33.8756C53.6879 34.1218 53.6425 34.3796 53.507 34.5923C53.3716 34.805 53.1571 34.9552 52.9109 35.0098L46.0484 36.5623L45.8393 36.5813Z" fill="white"/>
</svg>
