<svg width="25" height="20" viewBox="0 0 25 20" fill="none" xmlns="http://www.w3.org/2000/svg">
<path d="M23.75 1.25H1.25C0.559766 1.25 0 1.80977 0 2.5V17.5C0 18.1902 0.559766 18.75 1.25 18.75H23.75C24.4402 18.75 25 18.1902 25 17.5V2.5C25 1.80977 24.4402 1.25 23.75 1.25ZM23.75 17.5H1.25V2.5H23.75V17.5ZM11.5625 12.5H14.6875C14.8602 12.5 15 12.3602 15 12.1875V11.5625C15 11.3898 14.8602 11.25 14.6875 11.25H11.5625C11.3898 11.25 11.25 11.3898 11.25 11.5625V12.1875C11.25 12.3602 11.3898 12.5 11.5625 12.5ZM20.9375 11.25H17.8125C17.6398 11.25 17.5 11.3898 17.5 11.5625V12.1875C17.5 12.3602 17.6398 12.5 17.8125 12.5H20.9375C21.1102 12.5 21.25 12.3602 21.25 12.1875V11.5625C21.25 11.3898 21.1102 11.25 20.9375 11.25ZM11.5625 8.75H20.9375C21.1102 8.75 21.25 8.61016 21.25 8.4375V7.8125C21.25 7.63984 21.1102 7.5 20.9375 7.5H11.5625C11.3898 7.5 11.25 7.63984 11.25 7.8125V8.4375C11.25 8.61016 11.3898 8.75 11.5625 8.75ZM5.2625 10.0672L6.91055 10.5141C7.07422 10.5586 7.1875 10.6918 7.1875 10.8383C7.1875 11.0258 7.01172 11.1781 6.79453 11.1781H5.76562C5.60352 11.1781 5.44414 11.1375 5.30586 11.0629C5.18555 10.9977 5.03867 11.0094 4.94492 11.109L4.47344 11.6062C4.35195 11.7344 4.37188 11.9438 4.51758 12.0434C4.8418 12.2641 5.22305 12.3902 5.625 12.4152V12.8125C5.625 12.9852 5.76484 13.125 5.9375 13.125H6.5625C6.73516 13.125 6.875 12.9852 6.875 12.8125V12.4121C7.74141 12.3691 8.4375 11.6867 8.4375 10.8379C8.4375 10.1281 7.94453 9.49883 7.2375 9.30781L5.58945 8.86094C5.42578 8.81641 5.3125 8.6832 5.3125 8.53672C5.3125 8.34922 5.48828 8.19687 5.70547 8.19687H6.73438C6.89648 8.19687 7.05586 8.2375 7.19414 8.31211C7.31445 8.37695 7.46133 8.36562 7.55508 8.26602L8.02656 7.76875C8.14805 7.64062 8.12813 7.43125 7.98242 7.33164C7.6582 7.11094 7.27695 6.98477 6.875 6.95977V6.5625C6.875 6.38984 6.73516 6.25 6.5625 6.25H5.9375C5.76484 6.25 5.625 6.38984 5.625 6.5625V6.96289C4.75859 7.00586 4.0625 7.68828 4.0625 8.53711C4.0625 9.24688 4.55547 9.87617 5.2625 10.0672Z" fill="#111111"/>
</svg>
