<svg xmlns="http://www.w3.org/2000/svg" viewBox="0 0 101 101"><defs><style>.cls-1{fill:#53c4cc;}.cls-2{fill:#fff;}</style></defs><g id="Layer_2" data-name="Layer 2"><g id="Layer_3" data-name="Layer 3"><rect class="cls-1" width="101" height="101" rx="50.5"/><path class="cls-2" d="M36.07,34.11h-9a1.5,1.5,0,0,1,0-3h9a1.5,1.5,0,1,1,0,3Z"/><path class="cls-2" d="M31.56,38.61a1.5,1.5,0,0,1-1.5-1.5v-9a1.5,1.5,0,0,1,3,0v9A1.5,1.5,0,0,1,31.56,38.61Z"/><path class="cls-2" d="M31.55,45.4A12.8,12.8,0,1,1,44.12,35a1.5,1.5,0,1,1-2.95-.57,9.8,9.8,0,1,0-5.93,7.21,1.5,1.5,0,0,1,1.13,2.78A12.92,12.92,0,0,1,31.55,45.4Z"/><circle class="cls-2" cx="41.7" cy="39.37" r="1.61"/><path class="cls-2" d="M37.69,80.22A7.32,7.32,0,0,1,35.8,80l-.18-.06-.2-.07-.13-.06L16.49,70a4.13,4.13,0,0,1-1.87-5.31l4.44-10.16a3.63,3.63,0,0,1,.51-.84,3,3,0,0,1,1.41-1,1.8,1.8,0,0,1,.4-.1h0l.12,0c2-.4,15.43-3.31,26.23-5.65L61.15,44a9.4,9.4,0,0,1,4.65.21l16.36,5a3.68,3.68,0,0,1,2.45,2.15,1.39,1.39,0,0,1,.1.26l3.83,11.59A3.74,3.74,0,0,1,85.92,68L52.76,76.58C51,77,48.19,77.79,45.6,78.47c-3.76,1-5.44,1.45-5.76,1.52A10.73,10.73,0,0,1,37.69,80.22Zm-1.11-3.13a5.73,5.73,0,0,0,2.65,0c.31-.07,3.12-.82,5.6-1.48s5.46-1.45,7.18-1.89l33.16-8.56a.7.7,0,0,0,.46-.37.75.75,0,0,0,.06-.59h0L81.86,52.57l-.1-.24a2,2,0,0,0-.48-.24l-16.37-5A6.16,6.16,0,0,0,61.78,47l-13.41,2.9c-10.88,2.36-24.43,5.29-26.31,5.67l-.1,0h0a.66.66,0,0,0-.12.18L17.37,65.88a1.13,1.13,0,0,0,.51,1.45ZM84.64,51.5Z"/><path class="cls-2" d="M38.67,63.08a11.72,11.72,0,0,1-4.09-.73L20.13,56a1.5,1.5,0,0,1,1.2-2.75L35.7,59.57a8.84,8.84,0,0,0,5,.28L61.4,55.16a1.5,1.5,0,1,1,.66,2.92L41.35,62.77A11.54,11.54,0,0,1,38.67,63.08Z"/><path class="cls-2" d="M37.35,80.22h0a1.51,1.51,0,0,1-1.47-1.53l.33-17.19A1.54,1.54,0,0,1,37.71,60a1.49,1.49,0,0,1,1.47,1.52l-.33,17.2A1.49,1.49,0,0,1,37.35,80.22Z"/><path class="cls-2" d="M67.58,55.37A1.54,1.54,0,1,1,66,53.83,1.54,1.54,0,0,1,67.58,55.37Z"/><path class="cls-2" d="M72.34,55.73a1.5,1.5,0,0,1-.32-3l10.83-2.41a1.5,1.5,0,1,1,.65,2.93L72.67,55.7Z"/></g></g></svg>