<svg width="64" height="64" viewBox="0 0 64 64" fill="none" xmlns="http://www.w3.org/2000/svg">
<circle cx="32" cy="32" r="32" fill="#0DB14B"/>
<path d="M22.8499 21.6144H17.1469C16.8948 21.6144 16.6531 21.5142 16.4748 21.336C16.2966 21.1577 16.1964 20.916 16.1964 20.6639C16.1964 20.4118 16.2966 20.17 16.4748 19.9918C16.6531 19.8135 16.8948 19.7134 17.1469 19.7134H22.8499C23.102 19.7134 23.3437 19.8135 23.522 19.9918C23.7002 20.17 23.8004 20.4118 23.8004 20.6639C23.8004 20.916 23.7002 21.1577 23.522 21.336C23.3437 21.5142 23.102 21.6144 22.8499 21.6144Z" fill="white"/>
<path d="M19.9921 28.7682C18.3226 28.7686 16.6937 28.2538 15.3276 27.2941C13.9616 26.3344 12.9249 24.9765 12.3592 23.4059C11.7934 21.8352 11.7262 20.1282 12.1665 18.5178C12.6069 16.9075 13.5334 15.4723 14.8197 14.408C16.106 13.3438 17.6894 12.7024 19.3537 12.5714C21.018 12.4404 22.6822 12.8262 24.1192 13.676C25.5561 14.5259 26.6958 15.7985 27.3827 17.3201C28.0696 18.8417 28.2702 20.5382 27.9572 22.1781C27.9093 22.426 27.7649 22.6447 27.5558 22.7861C27.3466 22.9275 27.0898 22.98 26.842 22.9321C26.5941 22.8842 26.3754 22.7398 26.234 22.5307C26.0925 22.3215 26.04 22.0648 26.0879 21.8169C26.3513 20.4608 26.155 19.0556 25.5301 17.8235C24.9051 16.5915 23.8872 15.6031 22.6374 15.0146C21.3876 14.426 19.9772 14.2711 18.6294 14.5742C17.2816 14.8773 16.0734 15.6212 15.1958 16.6881C14.3183 17.7551 13.8216 19.0842 13.7843 20.4651C13.747 21.8461 14.1712 23.2 14.9899 24.3128C15.8086 25.4255 16.9749 26.2335 18.3043 26.609C19.6338 26.9844 21.0505 26.9058 22.3303 26.3856C22.5639 26.2906 22.8256 26.2924 23.058 26.3904C23.2903 26.4885 23.4741 26.6748 23.5691 26.9084C23.664 27.142 23.6623 27.4037 23.5643 27.636C23.4662 27.8684 23.2799 28.0522 23.0463 28.1472C22.0774 28.5479 21.0405 28.7587 19.9921 28.7682V28.7682Z" fill="white"/>
<path d="M26.4237 25.9676C26.9872 25.9676 27.4439 25.5109 27.4439 24.9474C27.4439 24.384 26.9872 23.9272 26.4237 23.9272C25.8603 23.9272 25.4035 24.384 25.4035 24.9474C25.4035 25.5109 25.8603 25.9676 26.4237 25.9676Z" fill="white"/>
<path d="M23.8828 50.8324C23.4792 50.8382 23.0766 50.7914 22.6851 50.693L22.5711 50.655L22.4443 50.6106L22.362 50.5726L10.4491 44.3563C9.86266 44.0493 9.41437 43.5315 9.19449 42.9071C8.97462 42.2828 8.99951 41.5983 9.26414 40.9916L12.0776 34.5536C12.1607 34.3623 12.2694 34.1833 12.4008 34.0213C12.63 33.727 12.9407 33.5066 13.2942 33.3876C13.376 33.3569 13.4611 33.3356 13.5477 33.3243H13.6237C14.8911 33.0708 23.4012 31.2268 30.2511 29.7441L38.7485 27.8811C39.7263 27.6775 40.7396 27.7232 41.695 28.0142L52.0618 31.1825C52.4078 31.2751 52.7278 31.4461 52.9971 31.6824C53.2663 31.9187 53.4775 32.2138 53.6142 32.5449C53.6408 32.5975 53.6621 32.6527 53.6776 32.7096L56.1045 40.0538C56.2058 40.3618 56.2428 40.6874 56.2132 41.0104C56.1836 41.3333 56.088 41.6468 55.9324 41.9313C55.7768 42.2158 55.5644 42.4654 55.3085 42.6645C55.0525 42.8636 54.7584 43.0081 54.4443 43.089L33.4321 48.5259L28.8887 49.7298C26.5125 50.3635 25.4479 50.6423 25.2451 50.6866C24.7971 50.781 24.3406 50.8298 23.8828 50.8324V50.8324ZM23.1794 48.849C23.7336 48.9803 24.3108 48.9803 24.8649 48.849L28.4008 47.9175C30.042 47.4803 31.8606 46.9924 32.9568 46.7136L53.9691 41.2894C54.0318 41.2739 54.0904 41.2449 54.1408 41.2044C54.1911 41.1639 54.232 41.1129 54.2606 41.055C54.292 40.9985 54.3116 40.9362 54.3181 40.8719C54.3246 40.8077 54.318 40.7427 54.2986 40.6811L51.8717 33.3116L51.8083 33.1595C51.7142 33.0954 51.6119 33.0442 51.5041 33.0074L41.1311 29.8391C40.4859 29.6496 39.8027 29.6299 39.1477 29.7821L30.6503 31.6197C23.756 33.1152 15.1699 34.9718 13.9786 35.2126H13.9152C13.8838 35.2462 13.8581 35.2847 13.8392 35.3266L11.0067 41.7457C10.9348 41.9113 10.9281 42.0981 10.988 42.2685C11.0479 42.4389 11.1701 42.5803 11.3299 42.6645L23.1794 48.849Z" fill="white"/>
<path d="M24.5038 39.9716C23.6192 39.973 22.7416 39.8163 21.9121 39.509L12.7557 35.4852C12.6413 35.4353 12.5378 35.3633 12.4512 35.2734C12.3646 35.1835 12.2965 35.0774 12.2509 34.9612C12.1588 34.7265 12.1637 34.4648 12.2646 34.2338C12.3654 34.0027 12.5539 33.8211 12.7886 33.729C13.0233 33.6369 13.285 33.6418 13.5161 33.7427L22.6218 37.7474C23.6387 38.1107 24.739 38.1723 25.7901 37.9248L38.907 34.953C39.0317 34.9161 39.1626 34.9053 39.2916 34.921C39.4207 34.9368 39.5452 34.9789 39.6573 35.0447C39.7695 35.1105 39.8669 35.1986 39.9436 35.3036C40.0204 35.4085 40.0748 35.5281 40.1034 35.6549C40.1321 35.7818 40.1344 35.9131 40.1103 36.0409C40.0862 36.1687 40.0361 36.2901 39.9631 36.3977C39.8902 36.5054 39.7959 36.5969 39.6862 36.6667C39.5765 36.7364 39.4536 36.7829 39.3252 36.8033L26.202 39.7751C25.6456 39.9068 25.0756 39.9727 24.5038 39.9716V39.9716Z" fill="white"/>
<path d="M23.6673 50.8325C23.4158 50.8258 23.1769 50.7203 23.0026 50.5389C22.8283 50.3574 22.7324 50.1146 22.7358 49.8629L22.9449 38.9703C22.9498 38.7197 23.0515 38.4808 23.2287 38.3036C23.4059 38.1263 23.6449 38.0246 23.8954 38.0198C24.02 38.0214 24.143 38.0477 24.2573 38.0971C24.3716 38.1464 24.4751 38.218 24.5617 38.3075C24.6482 38.397 24.7162 38.5028 24.7618 38.6187C24.8073 38.7346 24.8294 38.8584 24.8269 38.9829L24.6178 49.882C24.6187 50.007 24.5946 50.131 24.5472 50.2467C24.4997 50.3624 24.4297 50.4675 24.3413 50.5559C24.2529 50.6444 24.1478 50.7143 24.0321 50.7618C23.9164 50.8093 23.7924 50.8333 23.6673 50.8325Z" fill="white"/>
<path d="M42.823 35.086C42.8229 35.2779 42.7662 35.4656 42.6601 35.6255C42.5539 35.7853 42.403 35.9104 42.2262 35.9849C42.0493 36.0595 41.8544 36.0802 41.6659 36.0446C41.4773 36.0089 41.3034 35.9185 41.166 35.7845C41.0286 35.6506 40.9337 35.4791 40.8932 35.2915C40.8528 35.1039 40.8685 34.9085 40.9385 34.7298C41.0085 34.5511 41.1296 34.397 41.2867 34.2868C41.4438 34.1766 41.6299 34.1152 41.8218 34.1102C41.952 34.1068 42.0817 34.1295 42.203 34.1771C42.3243 34.2246 42.4349 34.2959 42.5282 34.3869C42.6216 34.4778 42.6957 34.5866 42.7463 34.7066C42.7969 34.8267 42.823 34.9557 42.823 35.086Z" fill="white"/>
<path d="M45.8393 35.3139C45.5872 35.3408 45.3347 35.2665 45.1375 35.1072C44.9402 34.948 44.8143 34.7169 44.7874 34.4648C44.7605 34.2127 44.8348 33.9603 44.9941 33.763C45.1533 33.5658 45.3844 33.4398 45.6365 33.4129L52.4991 31.8858C52.7453 31.8304 53.0034 31.875 53.2167 32.0098C53.43 32.1447 53.581 32.3588 53.6365 32.605C53.6919 32.8512 53.6473 33.1094 53.5125 33.3227C53.3776 33.536 53.1635 33.687 52.9173 33.7424L46.0484 35.2949L45.8393 35.3139Z" fill="white"/>
</svg>
