<svg xmlns="http://www.w3.org/2000/svg" viewBox="0 0 101 101"><defs><style>.cls-1{fill:#53c4cc;}.cls-2{fill:#fff;}</style></defs><g id="Layer_2" data-name="Layer 2"><g id="Layer_3" data-name="Layer 3"><rect class="cls-1" width="101" height="101" rx="50.5"/><path class="cls-2" d="M70,79.82H33.88A7.91,7.91,0,0,1,26,71.91V46a1.5,1.5,0,0,1,3,0V71.91a4.91,4.91,0,0,0,4.9,4.91H70a4.91,4.91,0,0,0,4.9-4.91V34.1A4.9,4.9,0,0,0,70,29.2H47.56a1.5,1.5,0,0,1,0-3H70a7.91,7.91,0,0,1,7.9,7.9V71.91A7.92,7.92,0,0,1,70,79.82Z"/><path class="cls-2" d="M32,42.22a11.57,11.57,0,1,1,11.36-9.37,1.5,1.5,0,1,1-2.94-.57,8.57,8.57,0,1,0-5.19,6.31,1.49,1.49,0,0,1,2,.82,1.51,1.51,0,0,1-.82,2A11.7,11.7,0,0,1,32,42.22Z"/><path class="cls-2" d="M42,36.44a1.38,1.38,0,1,1-1.38-1.38A1.38,1.38,0,0,1,42,36.44Z"/><path class="cls-2" d="M35.94,33.55H31.5a1,1,0,0,1-1-1V28.23a1,1,0,0,1,2,0v3.32h3.44a1,1,0,1,1,0,2Z"/><path class="cls-2" d="M66.9,46.31H39.34a1.5,1.5,0,0,1,0-3H66.9a1.5,1.5,0,0,1,0,3Z"/><path class="cls-2" d="M66.9,53.28H39.34a1.5,1.5,0,0,1,0-3H66.9a1.5,1.5,0,0,1,0,3Z"/><path class="cls-2" d="M66.9,60.25H39.34a1.5,1.5,0,0,1,0-3H66.9a1.5,1.5,0,0,1,0,3Z"/><path class="cls-2" d="M53.16,67.23H39.34a1.5,1.5,0,0,1,0-3H53.16a1.5,1.5,0,0,1,0,3Z"/></g></g></svg>