<svg width="12" height="12" viewBox="0 0 12 12" fill="none" xmlns="http://www.w3.org/2000/svg">
<g clip-path="url(#clip0)">
<path d="M12.5742 4.13494L6.95508 9.78525L5.25 8.07642L10.8776 2.42799C10.9328 2.37225 10.9985 2.32796 11.0709 2.29763C11.1433 2.2673 11.221 2.25153 11.2995 2.25123C11.378 2.25092 11.4557 2.26608 11.5284 2.29585C11.601 2.32562 11.667 2.3694 11.7227 2.4247L11.726 2.42799L12.5742 3.28134C12.6868 3.39486 12.75 3.54826 12.75 3.70814C12.75 3.86802 12.6868 4.02142 12.5742 4.13494Z" fill="#0DB14B"/>
<path d="M6.95325 9.7872L5.67427 11.0732C5.56262 11.1857 5.41086 11.2493 5.25237 11.2499C5.09387 11.2505 4.94162 11.1881 4.82911 11.0765L4.82583 11.0732L0.925827 7.15071C0.813203 7.03727 0.75 6.88389 0.75 6.72403C0.75 6.56418 0.813203 6.4108 0.925827 6.29735L1.77426 5.444C1.88573 5.33177 2.03715 5.26833 2.19532 5.26758C2.35349 5.26684 2.5055 5.32885 2.61801 5.44001L2.62176 5.444L6.95325 9.7872Z" fill="#0DB14B"/>
</g>
<defs>
<clipPath id="clip0">
<rect width="12" height="12" fill="white"/>
</clipPath>
</defs>
</svg>
