<svg width="15" height="20" viewBox="0 0 15 20" fill="none" xmlns="http://www.w3.org/2000/svg">
<g clip-path="url(#clip0)">
<path d="M13.125 9.99906H3.75V6.24906C3.75 3.49125 4.74219 1.24906 7.5 1.24906C10.2578 1.24906 11.25 3.49125 11.25 6.24906V7.03031C11.25 7.28812 11.4609 7.49906 11.7188 7.49906H12.0312C12.2891 7.49906 12.5 7.28812 12.5 7.03031V6.30765C12.5 2.85453 10.9727 0.0107787 7.51953 -0.000940023C4.0625 -0.0126588 2.5 2.79593 2.5 6.24906V9.99906H1.875C0.839844 9.99906 0 10.8389 0 11.8741V18.1241C0 19.1592 0.839844 19.9991 1.875 19.9991H13.125C14.1602 19.9991 15 19.1592 15 18.1241V11.8741C15 10.8389 14.1602 9.99906 13.125 9.99906ZM13.75 18.1241C13.75 18.4678 13.4688 18.7491 13.125 18.7491H1.875C1.53125 18.7491 1.25 18.4678 1.25 18.1241V11.8741C1.25 11.5303 1.53125 11.2491 1.875 11.2491H13.125C13.4688 11.2491 13.75 11.5303 13.75 11.8741V18.1241ZM7.5 16.8741C7.15625 16.8741 6.875 16.5928 6.875 16.2491V13.7491C6.875 13.4053 7.15625 13.1241 7.5 13.1241C7.84375 13.1241 8.125 13.4053 8.125 13.7491V16.2491C8.125 16.5928 7.84375 16.8741 7.5 16.8741Z" fill="#111111"/>
</g>
<defs>
<clipPath id="clip0">
<rect width="15" height="20" fill="white"/>
</clipPath>
</defs>
</svg>
