<svg xmlns="http://www.w3.org/2000/svg" viewBox="0 0 101 101"><defs><style>.cls-1{fill:#53c4cc;}.cls-2{fill:#fff;}</style></defs><g id="Layer_2" data-name="Layer 2"><g id="Layer_3" data-name="Layer 3"><rect class="cls-1" width="101" height="101" rx="50.5"/><path class="cls-2" d="M45,55.15a3.87,3.87,0,0,1,1.59.53,10.31,10.31,0,0,0,1.9.81,7.08,7.08,0,0,0,1.89.23A4.46,4.46,0,0,0,53,56.06a2.16,2.16,0,0,0,.92-1.85,2.23,2.23,0,0,0-.6-1.67,3.38,3.38,0,0,0-1.8-.69l-2.39-.35a6.87,6.87,0,0,1-3.87-1.67,5.21,5.21,0,0,1-1.44-3.92A5.75,5.75,0,0,1,45.15,42,6.41,6.41,0,0,1,49,40v-.66A3.17,3.17,0,0,1,49.16,38a1.57,1.57,0,0,1,2.64,0A3.17,3.17,0,0,1,52,39.34v.56a10.5,10.5,0,0,1,3.26.91c1.07.5,1.6,1.15,1.6,1.95A1.87,1.87,0,0,1,56.42,44a1.47,1.47,0,0,1-1.16.54,3.32,3.32,0,0,1-1.46-.45,6.64,6.64,0,0,0-3.16-.79,3.38,3.38,0,0,0-2.28.69,2.21,2.21,0,0,0-.8,1.72,2,2,0,0,0,.58,1.54A3.5,3.5,0,0,0,50,48l2.35.33a7,7,0,0,1,3.83,1.56,5.53,5.53,0,0,1,1.54,4.23,5.37,5.37,0,0,1-1.56,4A7.45,7.45,0,0,1,52,60v1.19a3.13,3.13,0,0,1-.21,1.36,1.57,1.57,0,0,1-2.64,0A3.13,3.13,0,0,1,49,61.23v-1.1a10.09,10.09,0,0,1-3.64-1,5.31,5.31,0,0,1-1.51-1,1.9,1.9,0,0,1,.05-2.58A1.49,1.49,0,0,1,45,55.15Z"/><path class="cls-2" d="M69.19,43.64a1.75,1.75,0,1,1-1.75-1.75A1.75,1.75,0,0,1,69.19,43.64Z"/><path class="cls-2" d="M50.23,78.18a7.77,7.77,0,0,1-7.37-5.3,2.73,2.73,0,0,1,.37-2.46,2.8,2.8,0,0,1,2.26-1.16H55a2.76,2.76,0,0,1,2.25,1.16,2.73,2.73,0,0,1,.37,2.46A7.76,7.76,0,0,1,50.23,78.18Zm-4.4-5.92a4.78,4.78,0,0,0,8.8,0Zm9.15,0h0Z"/><path class="cls-2" d="M71.59,72H29.41a4.38,4.38,0,0,1-4-2.34,3.83,3.83,0,0,1,.33-4.07,1,1,0,0,1,.19-.21l5.38-5V45.9a18.77,18.77,0,0,1,13.31-18v-.67a5.54,5.54,0,0,1,11.07,0V28A19,19,0,0,1,67.42,38.44a1.5,1.5,0,0,1-2.75,1.2,16,16,0,0,0-10.8-9.1,1.49,1.49,0,0,1-1.14-1.46V27.25a2.54,2.54,0,0,0-5.07,0v1.82a1.5,1.5,0,0,1-1.15,1.46A16,16,0,0,0,34.35,45.9V61.06a1.49,1.49,0,0,1-.67,1.25l-5.54,5.18a.86.86,0,0,0,0,.85,1.39,1.39,0,0,0,1.29.7H71.59a1.38,1.38,0,0,0,1.3-.73.82.82,0,0,0-.07-.87l-6.3-5.16A1.5,1.5,0,0,1,66,61.12V50.57a1.5,1.5,0,1,1,3,0v9.84l5.89,4.82a1,1,0,0,1,.21.21,3.83,3.83,0,0,1,.53,4.15A4.35,4.35,0,0,1,71.59,72Z"/></g></g></svg>