<svg width="18" height="20" viewBox="0 0 18 20" fill="none" xmlns="http://www.w3.org/2000/svg">
<g clip-path="url(#clip0)">
<path d="M17.2656 4.45312H0.234375C0.172215 4.45312 0.112601 4.42843 0.0686468 4.38448C0.024693 4.34052 0 4.28091 0 4.21875L0 3.28125C0 3.21909 0.024693 3.15948 0.0686468 3.11552C0.112601 3.07157 0.172215 3.04688 0.234375 3.04688H17.2656C17.3278 3.04688 17.3874 3.07157 17.4314 3.11552C17.4753 3.15948 17.5 3.21909 17.5 3.28125V4.21875C17.5 4.28091 17.4753 4.34052 17.4314 4.38448C17.3874 4.42843 17.3278 4.45312 17.2656 4.45312ZM17.2656 10.7031H0.234375C0.172215 10.7031 0.112601 10.6784 0.0686468 10.6345C0.024693 10.5905 0 10.5309 0 10.4688L0 9.53125C0 9.46909 0.024693 9.40948 0.0686468 9.36552C0.112601 9.32157 0.172215 9.29688 0.234375 9.29688H17.2656C17.3278 9.29688 17.3874 9.32157 17.4314 9.36552C17.4753 9.40948 17.5 9.46909 17.5 9.53125V10.4688C17.5 10.5309 17.4753 10.5905 17.4314 10.6345C17.3874 10.6784 17.3278 10.7031 17.2656 10.7031ZM17.2656 16.9531H0.234375C0.172215 16.9531 0.112601 16.9284 0.0686468 16.8845C0.024693 16.8405 0 16.7809 0 16.7188L0 15.7812C0 15.7191 0.024693 15.6595 0.0686468 15.6155C0.112601 15.5716 0.172215 15.5469 0.234375 15.5469H17.2656C17.3278 15.5469 17.3874 15.5716 17.4314 15.6155C17.4753 15.6595 17.5 15.7191 17.5 15.7812V16.7188C17.5 16.7809 17.4753 16.8405 17.4314 16.8845C17.3874 16.9284 17.3278 16.9531 17.2656 16.9531Z" fill="#111111"/>
</g>
<defs>
<clipPath id="clip0">
<rect width="17.5" height="20" fill="white"/>
</clipPath>
</defs>
</svg>
