<svg id="SvgjsSvg1001" width="288" height="288" xmlns="http://www.w3.org/2000/svg" version="1.1" xmlns:xlink="http://www.w3.org/1999/xlink" xmlns:svgjs="http://svgjs.com/svgjs"><defs id="SvgjsDefs1002"></defs><g id="SvgjsG1008"><svg xmlns="http://www.w3.org/2000/svg" enable-background="new 0 0 200 200" viewBox="0 0 200 200" width="288" height="288"><circle cx="100" cy="100" r="98" fill="#0db14b" class="color53c4cc svgShape"></circle><path fill="#ffffff" d="M98.1 108.1c.1 0 .2 0 .2 0h.1l0 0H98.1zM98.1 108.1c.1 0 .2 0 .2 0h.1l0 0H98.1zM96.1 109.3c.6 0 1.2.1 1.9.1.1 0 .2 0 .3 0h.1 1.3l0 0c.2 0 .3 0 .5 0C98.8 109.2 97.5 109.2 96.1 109.3zM128.5 163c0 1.9-1.5 3.3-3.3 3.3H41.3c-1.9 0-3.3-1.5-3.3-3.3 0-5.4.7-10.8 2.2-16 1.4-5 3.4-9.8 6-14.4 1.2-2 2.5-3.9 3.9-5.8l.1-.1c.5-.7 1.4-1.1 2.2-1.2.9-.1 1.8.2 2.4.8 1.3 1.1 1.5 3 .6 4.4l-.1.1c-1.2 1.6-2.4 3.3-3.4 5.2-4.2 7.2-6.7 15.3-7.2 23.7h80.3C126.9 159.7 128.5 161.2 128.5 163z" class="colorfff svgShape"></path><path fill="#ffffff" d="M139.5,118.9c-6.9-6.4-15-11.1-23.9-13.7c12.5-6.4,20.7-19.5,20.6-33.7c0-1.9-1.5-3.3-3.3-3.3
			s-3.3,1.5-3.3,3.3c0,17.2-14,31.2-31.1,31.2h-0.2c-9.5,0-18.3-4.3-24.3-11.7l-0.1-0.1c-1.1-1.2-3-1.4-4.3-0.5
			c-1.5,1-1.9,3.1-0.9,4.6l0.1,0.1c3.3,4.2,7.6,7.6,12.3,10.1c-8.5,2.6-16.4,6.9-23.1,13c-0.1,0.1-0.2,0.2-0.2,0.2
			c-1.3,1.3-1.2,3.4,0.1,4.7c1.3,1.3,3.4,1.2,4.6,0c9.8-8.7,21.7-13.4,33.7-13.9c1.4-0.1,2.7-0.1,4.1,0c12.5,0.5,24.8,5.3,34.7,14.5
			c0.6,0.6,1.4,0.9,2.2,0.9l0,0h0.5l0.1-0.1c0.7-0.2,1.4-0.5,1.9-0.9l0.2-0.2c0.5-0.6,0.9-1.5,0.8-2.3
			C140.5,120.3,140.1,119.5,139.5,118.9z M98.4,108.1L98.4,108.1c-0.2,0-0.2,0-0.3,0H98.4L98.4,108.1z" class="colorfff svgShape"></path><g fill="#000000" class="color000 svgShape"><path fill="#ffffff" d="M130.6,53.2c-0.2,0.9-0.6,1.6-1.4,2.2c-0.7,0.5-1.6,0.7-2.5,0.5c-0.9-0.2-1.6-0.6-2.2-1.3
			c-0.1-0.1-0.1-0.2-0.2-0.2c-9.4-14.4-28.9-18.4-43.2-9c-12.5,8.3-17.4,24.3-11.7,38.1c0.3,0.9,0.3,1.7,0,2.6
			c-0.3,0.8-0.9,1.3-1.5,1.7l0,0l-0.2,0.1c-0.4,0.2-0.9,0.2-1.2,0.2h-0.9l-0.1-0.2c-0.9-0.3-1.7-1-2.1-1.9
			c-8-19.4,1.3-41.6,20.7-49.5c16.7-6.9,36.1-0.9,46.1,14.2C130.5,51.5,130.7,52.3,130.6,53.2z" class="colorfff svgShape"></path></g><g fill="#000000" class="color000 svgShape"><path fill="#ffffff" d="M98.1,108.1c0.1,0,0.2,0,0.2,0h0.1l0,0H98.1z" class="colorfff svgShape"></path></g><g fill="#000000" class="color000 svgShape"><path fill="#ffffff" d="M162,148.2c0,1.9-1.5,3.3-3.3,3.3H148v10.7c0,0.9-0.3,1.7-0.9,2.3c-0.4,0.4-0.9,0.7-1.4,0.9l-0.1,0.2h-0.9
			c-1.9,0-3.3-1.5-3.3-3.3v-10.8h-10.8c-1.9,0-3.3-1.5-3.3-3.3s1.5-3.3,3.3-3.3h10.8v-10.8c0-1.9,1.5-3.3,3.3-3.3s3.3,1.5,3.3,3.3
			v10.8h10.7C160.5,144.9,162,146.4,162,148.2z" class="colorfff svgShape"></path></g></svg></g></svg>