<svg xmlns="http://www.w3.org/2000/svg" viewBox="0 0 101 101"><defs><style>.cls-1{fill:#53c4cc;}.cls-2{fill:#fff;}</style></defs><g id="Layer_2" data-name="Layer 2"><g id="Layer_3" data-name="Layer 3"><rect class="cls-1" width="101" height="101" rx="50.5"/><path class="cls-2" d="M30.07,46.11a13.71,13.71,0,0,1-4.81-.88,1.5,1.5,0,1,1,1-2.81c4.65,1.73,9.56.2,13.13-4.08a1.5,1.5,0,0,1,2.31,1.92A15.28,15.28,0,0,1,30.07,46.11Z"/><path class="cls-2" d="M41.83,46.6h-.18a1.5,1.5,0,0,1-1.31-1.67l.71-5.9L36.21,37.7A1.5,1.5,0,1,1,37,34.81l6.09,1.66a1.49,1.49,0,0,1,1.09,1.62l-.86,7.19A1.5,1.5,0,0,1,41.83,46.6Z"/><path class="cls-2" d="M25.83,30.62a1.54,1.54,0,0,1-.95-.34,1.5,1.5,0,0,1-.21-2.11,15.2,15.2,0,0,1,16.37-5A1.5,1.5,0,1,1,40.22,26a12.13,12.13,0,0,0-13.23,4A1.51,1.51,0,0,1,25.83,30.62Z"/><path class="cls-2" d="M29.86,33.32a1.37,1.37,0,0,1-.4,0l-6.09-1.66A1.5,1.5,0,0,1,22.28,30l.86-7.19a1.5,1.5,0,0,1,3,.35l-.71,5.91,4.84,1.32a1.5,1.5,0,0,1-.39,2.94Z"/><path class="cls-2" d="M37.69,82.22A7.32,7.32,0,0,1,35.8,82l-.17-.06-.21-.07-.13-.06L16.49,72a4.13,4.13,0,0,1-1.87-5.31l4.44-10.16a3.63,3.63,0,0,1,.51-.84,3,3,0,0,1,1.41-1,1.8,1.8,0,0,1,.4-.1h0l.12,0c2-.4,15.4-3.3,26.19-5.64L61.15,46a9.39,9.39,0,0,1,4.65.21l16.36,5a3.68,3.68,0,0,1,2.45,2.15c0,.09.08.17.11.26l3.82,11.59h0A3.74,3.74,0,0,1,85.92,70L52.76,78.58l-7.17,1.9c-3.75,1-5.43,1.44-5.75,1.51A10.73,10.73,0,0,1,37.69,82.22Zm-1.11-3.13a5.77,5.77,0,0,0,2.66,0l5.58-1.47c2.59-.69,5.46-1.46,7.19-1.9l33.16-8.56a.7.7,0,0,0,.46-.37.75.75,0,0,0,.06-.59L81.86,54.57l-.1-.24a2,2,0,0,0-.48-.24l-16.37-5A6.16,6.16,0,0,0,61.78,49L48.32,51.86c-11.43,2.48-24.38,5.29-26.26,5.66l-.1,0h0a.54.54,0,0,0-.12.18L17.37,67.88a1.13,1.13,0,0,0,.51,1.45ZM81.72,54.15h0Z"/><path class="cls-2" d="M38.67,65.08a11.72,11.72,0,0,1-4.09-.73L20.13,58a1.5,1.5,0,0,1,1.2-2.75L35.7,61.57a8.84,8.84,0,0,0,5,.28L61.4,57.16a1.5,1.5,0,1,1,.66,2.92L41.35,64.77A11.54,11.54,0,0,1,38.67,65.08Z"/><path class="cls-2" d="M37.35,82.22h0a1.51,1.51,0,0,1-1.47-1.53l.33-17.19A1.52,1.52,0,0,1,37.71,62a1.49,1.49,0,0,1,1.47,1.52l-.33,17.2A1.49,1.49,0,0,1,37.35,82.22Z"/><path class="cls-2" d="M67.58,57.37A1.54,1.54,0,1,1,66,55.83,1.54,1.54,0,0,1,67.58,57.37Z"/><path class="cls-2" d="M72.34,57.73a1.5,1.5,0,0,1-.32-3l10.83-2.41a1.5,1.5,0,1,1,.65,2.93L72.67,57.7Z"/></g></g></svg>