<svg width="48" height="48" viewBox="0 0 48 48" fill="none" xmlns="http://www.w3.org/2000/svg">
<g clip-path="url(#clip0_424_1246)">
<path d="M33.5086 25.9035C33.4855 25.5994 33.4637 25.2729 33.4407 24.9689V24.875C33.3958 24.1506 33.3496 23.5438 33.3279 23.0997C33.3048 22.8432 33.3048 22.6331 33.2831 22.493V22.3066C33.26 18.6397 31.2223 15.3945 28.144 13.8056C27.8954 11.6575 26.1511 9.99854 24.0007 9.99854C21.8502 9.99854 20.106 11.6561 19.8574 13.8056C16.7777 15.3931 14.74 18.6397 14.7183 22.3528V22.5168C14.7183 22.6569 14.6952 22.8671 14.6735 23.1235C14.6504 23.5677 14.6055 24.1744 14.5607 24.8988V24.9927C14.5376 25.2967 14.5159 25.5994 14.4928 25.9273C13.0188 26.6741 12 28.2617 12 30.0832C12 32.489 13.766 34.497 16.0754 34.7309H20.0149C20.4225 36.5987 22.0526 37.9999 23.9993 37.9999C25.946 37.9999 27.5544 36.5987 27.9837 34.7309H31.8322L31.945 34.7071C34.2313 34.4731 35.9973 32.489 35.9973 30.0832C35.9973 28.2617 34.9784 26.6741 33.5072 25.9035H33.5086ZM23.9993 35.688C23.3201 35.688 22.7536 35.3138 22.4371 34.7534H25.5846C25.245 35.3138 24.6786 35.688 23.9993 35.688ZM31.6977 32.419H16.3023C15.1476 32.3027 14.2646 31.298 14.2646 30.0832C14.2646 28.7983 15.2834 27.7474 16.5291 27.7474H16.6419C16.6419 27.7474 16.9815 22.5868 16.9815 22.3767C16.9815 19.06 19.1319 16.2577 22.0988 15.4169V14.3198C22.0988 13.2227 22.9587 12.3343 24.0007 12.3343C25.0426 12.3343 25.9025 13.2213 25.9025 14.3198V15.4169C28.8681 16.2577 31.0199 19.06 31.0199 22.3767C31.0199 22.5868 31.3595 27.7474 31.3595 27.7474H31.4722C32.7179 27.7474 33.7368 28.7983 33.7368 30.0832C33.7368 31.298 32.8538 32.3013 31.6991 32.419H31.6977Z" fill="#53C4CC"/>
</g>
<circle cx="24" cy="24" r="22" stroke="#53C4CC" stroke-width="3"/>
<defs>
<clipPath id="clip0_424_1246">
<rect width="24" height="28" fill="white" transform="translate(12 10)"/>
</clipPath>
</defs>
</svg>
