<svg xmlns="http://www.w3.org/2000/svg" xmlns:svgjs="http://svgjs.com/svgjs" xmlns:xlink="http://www.w3.org/1999/xlink" width="288" height="288"><svg xmlns="http://www.w3.org/2000/svg" width="288" height="288" fill="none" viewBox="0 0 15 18"><g fill="#fff" class="color000 svgShape" clip-path="url(#a)"><path d="M13.4429 10.2236C13.4284 10.0281 13.4148 9.81827 13.4004 9.6228V9.56245C13.3724 9.09675 13.3435 8.70672 13.3299 8.42118C13.3155 8.25634 13.3155 8.12123 13.3019 8.03115V7.91135C13.2875 5.55404 12.0139 3.46787 10.09 2.4464C9.93462 1.06553 8.84445 -0.000976562 7.50042 -0.000976562C6.15639 -0.000976562 5.06623 1.06463 4.91085 2.4464C2.98608 3.46697 1.71251 5.55404 1.69893 7.94107V8.04646C1.69893 8.13654 1.6845 8.27165 1.67091 8.43649C1.65648 8.72204 1.62846 9.11207 1.60044 9.57776V9.63811C1.58601 9.83358 1.57242 10.0281 1.55799 10.2389C0.63678 10.719 0 11.7396 0 12.9106C0 14.4572 1.10375 15.748 2.54712 15.8984H5.00934C5.26405 17.0992 6.2829 17.9999 7.49958 17.9999C8.71625 17.9999 9.72151 17.0992 9.98981 15.8984H12.3951L12.4656 15.8831C13.8945 15.7327 14.9983 14.4572 14.9983 12.9106C14.9983 11.7396 14.3615 10.719 13.442 10.2236H13.4429ZM7.49958 16.5137C7.07505 16.5137 6.721 16.2732 6.52318 15.9128H8.49041C8.27814 16.2732 7.9241 16.5137 7.49958 16.5137ZM12.3111 14.4122H2.68891C1.96723 14.3374 1.41535 13.6916 1.41535 12.9106C1.41535 12.0846 2.05213 11.409 2.8307 11.409H2.90117C2.90117 11.409 3.11343 8.0915 3.11343 7.95639C3.11343 5.82427 4.45746 4.02274 6.31177 3.48228V2.77698C6.31177 2.07168 6.84921 1.5006 7.50042 1.5006C8.15164 1.5006 8.68908 2.07078 8.68908 2.77698V3.48228C10.5425 4.02274 11.8874 5.82427 11.8874 7.95639C11.8874 8.0915 12.0997 11.409 12.0997 11.409H12.1701C12.9487 11.409 13.5855 12.0846 13.5855 12.9106C13.5855 13.6916 13.0336 14.3365 12.3119 14.4122H12.3111Z" class="color333 svgShape"/></g><defs><clipPath id="a"><rect width="15" height="18" fill="#fff" class="colorfff svgShape"/></clipPath></defs></svg></svg>