<svg width="15" height="15" viewBox="0 0 15 15" fill="none" xmlns="http://www.w3.org/2000/svg">
<path d="M3.9742 4.88002L4.97045 4.57502C5.04896 4.55101 5.13142 4.5427 5.21314 4.55056C5.29486 4.55843 5.37423 4.58231 5.44671 4.62085C5.5192 4.65938 5.58339 4.71182 5.63561 4.77516C5.68784 4.8385 5.72707 4.91151 5.75108 4.99002C5.77508 5.06852 5.78339 5.15099 5.77553 5.23271C5.76767 5.31442 5.74379 5.39379 5.70525 5.46628C5.66671 5.53877 5.61428 5.60295 5.55093 5.65518C5.48759 5.7074 5.41458 5.74664 5.33608 5.77064L2.94545 6.50189C2.86691 6.52591 2.7844 6.5342 2.70264 6.52631C2.62089 6.51841 2.54149 6.49448 2.46899 6.45588C2.39649 6.41728 2.33231 6.36477 2.28012 6.30135C2.22793 6.23793 2.18875 6.16484 2.16483 6.08627L1.43358 3.69564C1.40957 3.61714 1.40126 3.53467 1.40912 3.45295C1.41699 3.37124 1.44087 3.29187 1.4794 3.21938C1.51794 3.14689 1.57038 3.08271 1.63372 3.03048C1.69706 2.97826 1.77007 2.93903 1.84858 2.91502C2.00713 2.86653 2.17844 2.88302 2.32484 2.96085C2.47124 3.03867 2.58072 3.17147 2.6292 3.33002L2.9042 4.23064C4.4092 1.91252 7.39483 0.915643 10.0455 2.00189C10.8381 2.32681 11.55 2.82148 12.1309 3.45112C12.7119 4.08075 13.1478 4.83004 13.408 5.64627C13.4346 5.7249 13.4454 5.80805 13.4395 5.89087C13.4337 5.9737 13.4115 6.05453 13.374 6.12865C13.3366 6.20278 13.2848 6.2687 13.2217 6.32258C13.1585 6.37646 13.0852 6.41721 13.0061 6.44246C12.927 6.4677 12.8437 6.47693 12.761 6.46961C12.6783 6.46229 12.5979 6.43857 12.5244 6.39982C12.451 6.36107 12.386 6.30809 12.3333 6.24395C12.2806 6.17981 12.2411 6.10581 12.2173 6.02627C11.9533 5.19713 11.4601 4.45957 10.7948 3.89877C10.1294 3.33796 9.319 2.97678 8.45712 2.85692C7.59525 2.73707 6.71704 2.86342 5.92392 3.2214C5.13079 3.57938 4.45509 4.15438 3.97483 4.88002H3.9742ZM11.6786 10.0019L10.5692 10.2788C10.4889 10.3008 10.405 10.3065 10.3224 10.2957C10.2398 10.2848 10.1602 10.2575 10.0883 10.2155C10.0164 10.1734 9.95366 10.1174 9.90372 10.0508C9.85378 9.9841 9.81766 9.90813 9.7975 9.82731C9.77734 9.74649 9.77353 9.66246 9.78631 9.58015C9.79909 9.49785 9.82819 9.41892 9.8719 9.34802C9.91561 9.27712 9.97305 9.21567 10.0409 9.16728C10.1087 9.1189 10.1854 9.08455 10.2667 9.06627L12.5436 8.49814C12.6622 8.4417 12.7957 8.4242 12.9248 8.44814C13.0493 8.46451 13.1659 8.51799 13.2596 8.60159C13.3532 8.6852 13.4195 8.79507 13.4498 8.91689L14.0548 11.3419C14.0907 11.5012 14.0628 11.6681 13.9771 11.8071C13.8914 11.9461 13.7548 12.046 13.5964 12.0855C13.438 12.125 13.2704 12.101 13.1295 12.0186C12.9886 11.9361 12.8855 11.8018 12.8423 11.6444L12.6361 10.8181C12.0343 11.6841 11.2101 12.3718 10.2503 12.8087C9.29054 13.2455 8.23069 13.4155 7.18243 13.3006C6.13417 13.1857 5.13631 12.7902 4.29396 12.1557C3.45161 11.5213 2.79596 10.6714 2.39608 9.69564L2.23358 9.29939C2.20247 9.22343 2.18663 9.14209 2.18696 9.06C2.18729 8.97792 2.20379 8.89671 2.2355 8.821C2.26722 8.74529 2.31354 8.67657 2.37181 8.61876C2.43009 8.56095 2.49918 8.51519 2.57514 8.48408C2.72855 8.42126 2.90064 8.42195 3.05354 8.486C3.12925 8.51772 3.19797 8.56404 3.25577 8.62232C3.31358 8.68059 3.35935 8.74968 3.39045 8.82564L3.55295 9.22127C3.87155 9.99866 4.39639 10.6743 5.07084 11.1752C5.74529 11.6762 6.54373 11.9834 7.38002 12.0639C8.2163 12.1443 9.05867 11.9948 9.81621 11.6315C10.5737 11.2682 11.2177 10.705 11.6786 10.0025V10.0019Z" fill="#A4A2A2"/>
</svg>
