<svg width="48" height="48" viewBox="0 0 48 48" fill="none" xmlns="http://www.w3.org/2000/svg">
<circle cx="24" cy="24" r="22" stroke="#FB5454" stroke-width="3"/>
<path d="M34.0625 18.4766H30.0266C30.3984 17.8914 30.6172 17.1969 30.6172 16.4531C30.6172 14.3723 28.9246 12.6797 26.8438 12.6797C25.7117 12.6797 24.6918 13.1828 24 13.9758C23.3082 13.1828 22.2883 12.6797 21.1562 12.6797C19.0754 12.6797 17.3828 14.3723 17.3828 16.4531C17.3828 17.1969 17.5988 17.8914 17.9734 18.4766H13.9375C13.4535 18.4766 13.0625 18.8676 13.0625 19.3516V24.8203C13.0625 24.9406 13.1609 25.0391 13.2812 25.0391H14.375V34.4453C14.375 34.9293 14.766 35.3203 15.25 35.3203H32.75C33.234 35.3203 33.625 34.9293 33.625 34.4453V25.0391H34.7188C34.8391 25.0391 34.9375 24.9406 34.9375 24.8203V19.3516C34.9375 18.8676 34.5465 18.4766 34.0625 18.4766ZM24.9297 16.4531C24.9297 15.3977 25.7883 14.5391 26.8438 14.5391C27.8992 14.5391 28.7578 15.3977 28.7578 16.4531C28.7578 17.5086 27.8992 18.3672 26.8438 18.3672H24.9297V16.4531ZM21.1562 14.5391C22.2117 14.5391 23.0703 15.3977 23.0703 16.4531V18.3672H21.1562C20.1008 18.3672 19.2422 17.5086 19.2422 16.4531C19.2422 15.3977 20.1008 14.5391 21.1562 14.5391ZM14.9219 23.1797V20.3359H23.0703V23.1797H14.9219ZM16.2344 25.0391H23.0703V33.4609H16.2344V25.0391ZM31.7656 33.4609H24.9297V25.0391H31.7656V33.4609ZM33.0781 23.1797H24.9297V20.3359H33.0781V23.1797Z" fill="#FB5454"/>
</svg>
