<svg width="33" height="33" viewBox="0 0 33 33" fill="none" xmlns="http://www.w3.org/2000/svg">
<path d="M30.4804 11.1206C29.5704 11.1206 28.8699 11.8258 28.8699 12.7417V28.8123H3.31176V12.7417C3.31176 11.8258 2.6112 11.1206 1.70129 11.1206C0.791374 11.1206 0.0908203 11.8258 0.0908203 12.7417V30.4334C0.0908203 31.3494 0.791374 32.0546 1.70129 32.0546H30.4804C31.3903 32.0546 32.0908 31.3494 32.0908 30.4334V12.7417C32.0908 11.8258 31.3903 11.1206 30.4804 11.1206ZM9.89374 9.49942C10.3141 9.49942 10.7344 9.35838 11.0146 9.00659L14.5158 5.4822V22.1134C14.5158 23.0294 15.2163 23.7346 16.1263 23.7346C17.0362 23.7346 17.7367 23.0294 17.7367 22.1134V5.55191L21.2379 9.0763C21.5181 9.35838 21.9384 9.56913 22.3588 9.56913C22.7791 9.56913 23.1994 9.42809 23.4796 9.0763C24.1093 8.44243 24.1093 7.45514 23.4796 6.82127L17.2455 0.547397C16.9653 0.265316 16.545 0.0545654 16.1246 0.0545654C15.7043 0.0545654 15.284 0.195606 15.0038 0.547397L8.84371 6.74994C8.21402 7.38381 8.21402 8.3711 8.84371 9.00497C9.12394 9.35676 9.54427 9.4978 9.89374 9.4978V9.49942Z" fill="#979595"/>
</svg>
