<svg width="18" height="18" viewBox="0 0 18 18" fill="none" xmlns="http://www.w3.org/2000/svg">
<path d="M13.5 8.4375V9.5625C13.5 9.79453 13.3102 9.98438 13.0781 9.98438H9.98438V13.0781C9.98438 13.3102 9.79453 13.5 9.5625 13.5H8.4375C8.20547 13.5 8.01562 13.3102 8.01562 13.0781V9.98438H4.92188C4.68984 9.98438 4.5 9.79453 4.5 9.5625V8.4375C4.5 8.20547 4.68984 8.01562 4.92188 8.01562H8.01562V4.92188C8.01562 4.68984 8.20547 4.5 8.4375 4.5H9.5625C9.79453 4.5 9.98438 4.68984 9.98438 4.92188V8.01562H13.0781C13.3102 8.01562 13.5 8.20547 13.5 8.4375ZM17.7188 9C17.7188 13.8164 13.8164 17.7188 9 17.7188C4.18359 17.7188 0.28125 13.8164 0.28125 9C0.28125 4.18359 4.18359 0.28125 9 0.28125C13.8164 0.28125 17.7188 4.18359 17.7188 9ZM16.0312 9C16.0312 5.11523 12.8848 1.96875 9 1.96875C5.11523 1.96875 1.96875 5.11523 1.96875 9C1.96875 12.8848 5.11523 16.0312 9 16.0312C12.8848 16.0312 16.0312 12.8848 16.0312 9Z" fill="#222222"/>
</svg>
